<svg xmlns="http://www.w3.org/2000/svg" viewBox="0 0 85.6 51.8"><title>web movil_diseno_</title><g id="Capa_1" data-name="Capa 1"><path d="M69,25.8l-.54.4c-4,3-8.89,5-12.8,6.56a23.47,23.47,0,0,1-4.28,1.41,23.54,23.54,0,0,1-4.47.29,61.67,61.67,0,0,1-11.29-.68,49.68,49.68,0,0,1-11.54-4c-2.21-1-4.68-2.31-5.94-4.6l-.25-.46.43-.29A50.5,50.5,0,0,1,43.62,16a25.66,25.66,0,0,1,6.56.35,32.55,32.55,0,0,1,4.92,1.53c4.46,1.66,9.54,3.75,13.44,7.48Zm-49.59-.7c1.16,1.72,3.17,2.75,5.15,3.67a48.59,48.59,0,0,0,11.27,3.89,60.78,60.78,0,0,0,11.08.66,22.76,22.76,0,0,0,4.25-.27,22.22,22.22,0,0,0,4.07-1.35,58.42,58.42,0,0,0,12-6c-3.67-3.3-8.39-5.22-12.55-6.77A31.58,31.58,0,0,0,50,17.44a24.59,24.59,0,0,0-6.27-.33A49.38,49.38,0,0,0,19.44,25.11Z"/><path d="M68.46,25.19l-.34,1.09a18.74,18.74,0,0,0-5.5-.54H18.72V24.61H62.62A19.58,19.58,0,0,1,68.46,25.19Z"/><path d="M45.35,25.18l-1,.49a30.14,30.14,0,0,0-4.45,2.87c-.56.41-1.13.83-1.7,1.22a14.82,14.82,0,0,1-7.1,3L31,31.59a13.78,13.78,0,0,0,6.54-2.76c.57-.39,1.12-.8,1.68-1.21a38.31,38.31,0,0,1,3.66-2.47l-3.34-1.83c-1.47-.81-2.95-1.62-4.35-2.38-.53-.29-1.06-.57-1.6-.83a15.25,15.25,0,0,0-2.28-.85l.31-1.1a16.28,16.28,0,0,1,2.46.92c.56.26,1.11.56,1.66.86,1.4.76,2.88,1.57,4.35,2.38l4.27,2.34Z"/><path d="M59,25.1l-1.83.51a10.87,10.87,0,0,0-4,2.59l-5.09,4.5a15,15,0,0,1-2.58,2l-.56-1a14,14,0,0,0,2.38-1.82l5.09-4.5a16.21,16.21,0,0,1,3-2.26,10.13,10.13,0,0,1-2.65-1.63l-1.9-1.64c-.74-.64-1.51-1.31-2.24-2l-.48-.48a8.09,8.09,0,0,0-2.9-2.18l.37-1.08a9,9,0,0,1,3.34,2.46l.47.47c.7.68,1.45,1.34,2.18,2l1.9,1.64a10.1,10.1,0,0,0,3.64,1.93Z"/></g></svg>