<svg xmlns="http://www.w3.org/2000/svg" viewBox="0 0 36.59 36.59"><defs><style>.cls-1{fill:#fff;}</style></defs><title>web movil_recursos_</title><g id="Capa_1" data-name="Capa 1"><circle cx="18.3" cy="18.3" r="18.3"/><path class="cls-1" d="M20.37,14.61h0a2.17,2.17,0,0,1,2-1.57,6.61,6.61,0,0,1,2.5,0,3.39,3.39,0,0,1,2.63,2.73,11.22,11.22,0,0,1,.33,2.78c0,2.42,0,4.85,0,7.27,0,.19-.06.23-.23.23-1.07,0-2.15,0-3.22,0-.24,0-.31-.06-.31-.3,0-2.37,0-4.75,0-7.12a3.1,3.1,0,0,0,0-.47,1.77,1.77,0,0,0-2.25-1.47,1.63,1.63,0,0,0-1.48,1.8c0,2.4,0,4.81,0,7.21,0,.3-.08.37-.37.36-1,0-2.09,0-3.14,0-.2,0-.26-.05-.26-.26q0-6.32,0-12.63c0-.18,0-.26.23-.25q1.64,0,3.28,0c.19,0,.25.06.24.25C20.36,13.66,20.37,14.14,20.37,14.61Z"/><path class="cls-1" d="M11,19.48c0-2.08,0-4.16,0-6.24,0-.25.07-.3.31-.3,1.06,0,2.13,0,3.19,0,.21,0,.26.05.26.26q0,6.31,0,12.63c0,.21-.07.26-.26.25-1.07,0-2.15,0-3.22,0-.22,0-.28-.06-.28-.28C11,23.7,11,21.59,11,19.48Z"/><path class="cls-1" d="M12.86,8.25A1.88,1.88,0,1,1,11,10.13,1.88,1.88,0,0,1,12.86,8.25Z"/></g></svg>