<svg xmlns="http://www.w3.org/2000/svg" viewBox="0 0 94.67 51.8"><defs><style>.cls-1{fill:#1d1d1d;}.cls-2{font-size:25px;font-family:JessLight-Regular, Jess Light;letter-spacing:0.1em;}</style></defs><title>web movil_diseno_4</title><g id="Capa_1" data-name="Capa 1"><path class="cls-1" d="M70.7,11.77l.37-.25,0,0Z"/><path class="cls-1" d="M70.52,12.3l.12-.08h0Z"/><path class="cls-1" d="M71,11.5c-.09-.07-.3-.06-.17-.27s.6-.41.8-.56-.07-.09-.1-.14c.2-.14.39-.28.37-.31s-.16,0-.55.22C70.76,11.32,68.52,12.86,71,11.5Z"/><path class="cls-1" d="M69.5,12.76c.37-.23.75-.45,1.11-.69.08-.13.2-.29,0-.27A12,12,0,0,0,69.5,12.76Z"/><path class="cls-1" d="M69.68,9.38s0,0,.2.14l-.2-.14s0,0-.11,0a20,20,0,0,1,2.29,1.71l.33.18a21.57,21.57,0,0,0-5.73-3.77A31.73,31.73,0,0,1,69.68,9.38Z"/><path class="cls-1" d="M72.45,11.25l.19.17C72.49,11.25,72.47,11.24,72.45,11.25Z"/><path class="cls-1" d="M31.5,6.24a28.9,28.9,0,0,0-3.69,1.91A57,57,0,0,1,35,5C33.83,5.34,32.66,5.77,31.5,6.24Z"/><path class="cls-1" d="M23.92,10.87c0-.05,0-.08.06-.11l.13-.08.12-.08.25-.17,1.89-1.23c-.64.37-1.27.74-1.89,1.14l-.29.19-.12.09-.23.17S23.9,10.85,23.92,10.87Z"/><path class="cls-1" d="M24.12,10.44,26,9.29c.63-.41,1.24-.77,1.85-1.14-.7.38-1.39.77-2,1.18-.33.2-.64.4-.94.61l-.45.31-.19.14Z"/><path class="cls-1" d="M56.44,1.27c1.17.27,1.84.49,2.23.61l.74.11-.19-.07c-1.14-.36-2.33-.74-3.59-1a12.89,12.89,0,0,0-1.45-.2C55,.84,55.71,1.05,56.44,1.27Z"/><path class="cls-1" d="M58.67,1.88c-1.54-.19,1.48.5,0,0Z"/><path class="cls-1" d="M51,2.06h0Z"/><path class="cls-1" d="M36.89,3c1-.27,2-.54,2.92-.76a39.72,39.72,0,0,0-5.59,1.65l.74-.2A13.47,13.47,0,0,1,36.89,3Z"/><path class="cls-1" d="M58.63,3.54a32.18,32.18,0,0,0-3.92-1.12A19.7,19.7,0,0,0,50.79,2,42.17,42.17,0,0,0,36.13,4.38a62,62,0,0,0-6.92,2.85,37.33,37.33,0,0,0-3.5,2c-.54.33-1,.69-1.52,1a1.79,1.79,0,0,0-.45.46l.37-.22a1.24,1.24,0,0,0-.27.34c0,.18.24.34.39.47A10.66,10.66,0,0,0,26,12.49c1.31.74,2.86,1.38,4.36,2a45.46,45.46,0,0,0,9.27,2.95c.95.17,1.68.18,2.65.29s2,.16,2.93.2l0,0c2,.07,4.08,0,6.16,0a23.65,23.65,0,0,0,2.93-.19A12.46,12.46,0,0,0,57,17c.87-.32,1.8-.71,2.74-1.08l2.77-1.14a9.92,9.92,0,0,1,1.2-.36,34.44,34.44,0,0,0,5.18-2.26l0,.08c.29-.18.54-.34.76-.46-.71.84-3.06,2.25-.42,1h0l-.37.25,0,0h0a12.1,12.1,0,0,0-1.22.9c.39-.2.77-.42,1.16-.63-.05.08-.08.14,0,.15l-.09.08-.32.17a.61.61,0,0,0-.09.13c-1,.67-2.58,1.52-2.21,1.47a11.62,11.62,0,0,0,1.85-1l.19-.06c-1.11.61.1.18-.57.56-.91.46-1.81.92-2.74,1.34-1.89.85-3.65,1.57-5.4,2.29a18.15,18.15,0,0,1-5.7,1.58l-.54,0c-2,.1-3.83.08-5.77,0l.38-.05q-2.33-.06-4.67-.18a35.59,35.59,0,0,1-11.51-2.51c-2-.79-3.91-1.6-5.85-2.54a15,15,0,0,1-2.82-1.78,10.07,10.07,0,0,1-.78-.72,8.42,8.42,0,0,1-.72-.89c-.22-.31-.42-.62-.63-1-.43-.38.12-.55.39-.78l-.37.28-.18.14c-.05,0,0,.05,0,.09l.06.1q.26.41.52.79a8.19,8.19,0,0,0,1.21,1.45,7.85,7.85,0,0,0,.62.55c.19.14.38.3.58.43.39.28.8.53,1.2.76A23.49,23.49,0,0,0,27,15.54c-.74-.36-1.48-.73-2.2-1.14a12.72,12.72,0,0,1-2-1.46,9.93,9.93,0,0,1-1.94-2.46l-.1-.17c0-.06.08-.08.11-.12l.3-.22.6-.44c.4-.29.76-.6,1.19-.87.67-.44,1.14-.8,1.67-1.17a4,4,0,0,0,.48-.21c1.58-.88,3.21-1.64,4.6-2.35,0,0,.7-.33.44-.29C31.56,4,33.26,3.4,34.73,2.9c.63-.23,1.27-.45,1.9-.71A51.38,51.38,0,0,1,44.84.41,33.56,33.56,0,0,1,53.77.22a24.76,24.76,0,0,1,4.76,1.29c-1.07-.33-2.19-.66-3.37-.9A22.11,22.11,0,0,0,51.53.19a25.64,25.64,0,0,0-6.28.3L44,.7A43.2,43.2,0,0,1,51.53.19a22,22,0,0,1,4.18.71l-.08,0a20.9,20.9,0,0,0-3.3-.49,23.54,23.54,0,0,0-5.68.08L46,.57c-.41.05-.82.13-1.23.2,1.53-.2,3.06-.35,4.61-.4a28.14,28.14,0,0,1,2.91,0c.61.07,1.23.16,1.84.28H54c-.55-.08-2.08.1-1.29.28a27.8,27.8,0,0,1,6.17,1.56L61,3.29c.54.2.86.34.86.34s-1.44-.44-3-.94a30.7,30.7,0,0,0-3-.89L57,2.16c-.35-.09-.7-.17-1-.24a14.8,14.8,0,0,0-2.3-.48,32.24,32.24,0,0,0-5.93,0c-1.27.16-2.78.39-4.27.73,0,.06-.75.14-.49.16a15,15,0,0,0-3.59.83l-.1,0-.38.11a31.13,31.13,0,0,0-5.82,2c-.69.25-1.37.55-2.09.83.47-.18,1.18-.43,1.63-.64l.46-.19c1.77-.69,3.49-1.28,5.24-1.77l.58-.21.39-.08.09-.05c1.68-.47,3.63-.8,5.09-1.06A30,30,0,0,1,53.14,2a24.29,24.29,0,0,0-4.2-.07,24.73,24.73,0,0,1,4.92.2l.71.15c.49.11,1,.25,1.47.39q-.67-.22-1.35-.4c.93.18,1.84.43,2.72.7,4.8,1.59,9.85,3.42,13.94,6.72L71,9.5a25.08,25.08,0,0,0-6.09-3.45c1.29.62,2.19,1,3.38,1.74,0,0,0,0-.11,0a23.61,23.61,0,0,1,2.47,1.56l-1-.42c-.45-.24-1.08-.65-1.75-1a52.54,52.54,0,0,0-8.75-3.86,41.66,41.66,0,0,0-4.06-1.37A19.27,19.27,0,0,0,51,2.06,24.19,24.19,0,0,1,58.63,3.54Zm5.83,11.61-.7.36.12,0A3.74,3.74,0,0,0,64.46,15.15ZM59,17.4c1.63-.6,3.72-1.52,5.68-2.47,0,0,0,0,0,0C63,15.65,61,16.57,59,17.4Zm-6.46.88h0ZM23.59,12a26.94,26.94,0,0,0,6.11,3.17c.69.3,1.43.49,2.36.86,1.17.43,1.9.62,2.85.91l-.69-.29c1.64.58,2.63.7,4.29,1.14a1.07,1.07,0,0,1,.5,0,27,27,0,0,0,3.39.48c1.23.09,2.46.16,3.46.14.25,0,.75-.06,1.25-.09h1.83l-.08,0H47.35c-1.5,0-3.24,0-4.7-.09a38.88,38.88,0,0,1-10.3-2.26c-.7-.25-1.42-.48-2.12-.75a43.88,43.88,0,0,1-5.84-2.68C24.17,12.39,23.8,12.08,23.59,12Zm-2.36-2-.27.2-.13.1-.07.05,0,.07.38.59A9.66,9.66,0,0,0,22,12.07,8.2,8.2,0,0,0,23,13c.29.24.59.45.89.66a27.6,27.6,0,0,0,3.64,2,44,44,0,0,0,4.27,1.69c1.52.5,2.71.74,2.29.42-1.31-.08-5.24-1.59-8.52-3.29A14.65,14.65,0,0,1,23.34,13a9.08,9.08,0,0,1-1-.88,9,9,0,0,1-.74-.91l-.53-.77-.05-.08.06-.05.11-.1.17-.16C21.6,9.85,21.57,9.79,21.23,9.94ZM41.4,1.17c-1.07.23-2.09.48-3.28.77C39.2,1.64,40.3,1.38,41.4,1.17ZM31.23,5.29a46.24,46.24,0,0,1,9.66-3.18c2.5-.57,5.32-.7,7.61-1V1l-.26,0-2.39.06.13,0-.23,0c-.5,0-1,.09-1.62.18l-.83.15a41.71,41.71,0,0,0-9.09,2.39c-1.67.66-3,1.32-4.64,2.13Z"/><path class="cls-1" d="M54.19,2.1a24.53,24.53,0,0,1,3.22.81l2.45.77a39.31,39.31,0,0,1,11.79,6c.15,0,.22,0,.16-.21C68,6.33,63.43,4.61,59,2.92l-.11,0c-1-.27-2.26-.71-3.65-1a17.41,17.41,0,0,0-4.18-.5,45.94,45.94,0,0,0-7.6.8C47.09,1.69,50.63,1.35,54.19,2.1Z"/><path class="cls-1" d="M26.38,9.21c.84-.48,1.69-.94,2.57-1.37a57.65,57.65,0,0,1,7-3q-2.61.82-5.17,1.89A31.63,31.63,0,0,0,26.38,9.21Z"/><path class="cls-1" d="M37.9,4.23c-.66.19-1.29.42-1.92.62a53.74,53.74,0,0,1,7.87-1.78c4.37-.65,8.83-1,13,.41.48.15,1,.3,1.43.47a24,24,0,0,0-5.91-1.58,30.06,30.06,0,0,0-6,0,42.06,42.06,0,0,0-11,2.43L35,5a52.33,52.33,0,0,1,9.64-2.19A47.49,47.49,0,0,0,37.9,4.23Z"/><path class="cls-1" d="M53.14,2l.72.12.83.14-.5-.12C53.84,2,53.48,2,53.14,2Z"/><path class="cls-1" d="M45.86,1.13h-.1c-.81.11-1.63.19-2.45.33-1.13.21-2.31.45-3.5.74C42,1.72,44.15,1.39,45.86,1.13Z"/><path class="cls-1" d="M38.67,1.55l-1,.25L37.21,2l.72-.17Z"/><path class="cls-1" d="M24.62,7.5a52.92,52.92,0,0,1,12-5.31L37.21,2a37.5,37.5,0,0,0-7.83,2.9c-.47.22-1.13.64-1.6.86-1.1.54-2.15,1.12-3.15,1.73-.51.3-1,.63-1.48.94-.65.39-1.33,1-2,1.42.62-.44,1.24-1,1.92-1.36.48-.3.94-.62,1.44-.9Z"/><path class="cls-1" d="M22.75,11.5h-.21v0Z"/><path class="cls-1" d="M23,11.15h-.07v0Z"/><path class="cls-1" d="M22.54,11.53c0,.11.1.21,0,.32h-.47c-.12.06,0,.12,0,.18s-.23,0-.23,0,.05.13.28.15C22.62,11.87,23.9,11.76,22.54,11.53Z"/><path class="cls-1" d="M23.48,11.29h-.62c-.06.07-.15.13-.09.2A2.23,2.23,0,0,0,23.48,11.29Z"/><path class="cls-1" d="M71.19,11.37s0,0,.11,0l-.11,0s0,0-.05,0a7.38,7.38,0,0,1,1.28.19l.18,0a8.55,8.55,0,0,0-3.12-.3C70.13,11.3,70.57,11.29,71.19,11.37Z"/><path class="cls-1" d="M72.73,11.41l.11,0C72.75,11.39,72.74,11.4,72.73,11.41Z"/><path class="cls-1" d="M52.39,11.53a15.85,15.85,0,0,0-2,.23c1.33-.08,2.7-.13,3.72-.24Z"/><path class="cls-1" d="M47.31,12.15A10.68,10.68,0,0,0,49.59,12l-2.09.07Z"/><path class="cls-1" d="M48.28,12a13.19,13.19,0,0,0,2.15-.2C49.68,11.81,48.94,11.87,48.28,12Z"/><path class="cls-1" d="M64.15,9.26c.53-.08.85-.12,1-.13L65.51,9h-.09l-1.65.15c-.23,0-.45.08-.63.13Z"/><path class="cls-1" d="M65.18,9.13c-.69.35.71,0,0,0Z"/><path class="cls-1" d="M61.77,11h-.08l-.23,0Z"/><path class="cls-1" d="M55.25,10.15l1.38-.06c-.94,0-1.89.06-2.67.15l.35,0A4.07,4.07,0,0,1,55.25,10.15Z"/><path class="cls-1" d="M65.43,10.7c-1.27.07-2.53.17-3.74.27a66.35,66.35,0,0,0-7,.32c-1.88.24-5.16.18-7,.65l.58,0-.78.14c-3.1.1-6.14.17-9.3.17-.47,0-.82.09-1.29.09l-1.41,0,0,0c-1.93,0-3.83.1-5.83.19-.94,0-1.88,0-2.81,0-.35,0-.35-.12-.59-.15a24.24,24.24,0,0,0-2.7-.32V12a3.08,3.08,0,0,1-.43,0c.5-.33,1.79-.45.43-.67h0l.21,0h0a2.23,2.23,0,0,0,.7-.2h-.62S24,11,24,11L24,11h.17l.07-.07c.54-.13,1.39-.19,1.22-.31a3.24,3.24,0,0,0-1,0l-.09,0c.59,0,0-.21.35-.23l1.41,0c1.91,0,3.52,0,5.39-.12h.25c.91,0,1.77,0,2.66,0l-.18.06c.72,0,1.43,0,2.15,0C38.2,10.1,40,10,41.83,9.95s3.86-.09,5.85-.18c-.82.07-1.63.13-2.47.15H44.11c.38,0,.75,0,1.11,0a17.89,17.89,0,0,0,4-.23c.12,0,.12.05.24.05a15.07,15.07,0,0,0,2.34-.09s.35,0,.23-.09c.7,0,1.52,0,2.23-.09a5.76,5.76,0,0,0,.91-.14l7.72-.47c.67,0,1.45,0,2.13,0-1,.1-2,.18-3.09.25a14.35,14.35,0,0,0-2.8.13l-.56.08L62,9.08l1.82,0h0l-1.43.11a16.31,16.31,0,0,0-2.52.09l-.27,0L59,9.44l2.08-.12,1.28-.08.8,0-.08,0c-.24,0-.89.37-.54.46.9,0,2,0,2.85-.07l1.07,0h.42c.12.12-3,.27-2.86.3l.52,0L64,10a10.36,10.36,0,0,0-1.06.06c-.82.18-1.76.12-2.7.23l-2,.32c0,.06-.35,0-.23.09a4.66,4.66,0,0,0-1.71.17h0l-.18,0a18.28,18.28,0,0,0-2.87.25l-1.05,0a7.68,7.68,0,0,0,.82,0l.23,0c.89,0,1.74-.12,2.58-.18l.28-.06h.18l0,0c.81-.08,1.72-.11,2.41-.2,1.3-.1,2.69-.05,4,0l-2,.16,2.29-.16h1l-.65,0,1.3-.11a27.65,27.65,0,0,1,7.2.18l-.18.07a10.57,10.57,0,0,0-3.26-.13c.66,0,1.12,0,1.77,0,0,0,0,0-.05,0a9.11,9.11,0,0,1,1.36.11l-.51.15c-.24,0-.58,0-.93,0-1.5-.07-2.94,0-4.44,0l-4,0C63.07,10.89,64.27,10.81,65.43,10.7Zm-39.34.77.37,0-.06,0A.86.86,0,0,0,26.09,11.47Zm2.74,0c-.8-.05-1.86,0-2.89.06v0C26.8,11.61,27.85,11.54,28.84,11.5Zm3.22.61h0Zm14.28-.94c-.94.15-2.11.15-3.28.21-.35,0-.7.12-1.17.12s-.94.09-1.41.12l.35.06c-.82,0-1.29.15-2.11.09,0,0-.12.09-.23.09-.59,0-1.17,0-1.64,0s-1.17,0-1.64.09c-.12,0-.35.09-.59.12l-.86,0,0,0c.23,0,.47,0,.71,0,.7-.06,1.52-.12,2.23-.15,1.76-.06,3.4-.18,5-.29l1.05-.12a25.58,25.58,0,0,0,3-.29A2.65,2.65,0,0,0,46.34,11.17ZM47.65,9.9a32.49,32.49,0,0,1-3.77.16c-.94,0-3.63.18-3.16.53C41.87,9.95,48.46,10.57,47.65,9.9Zm9.78-.54c-.49,0-1,.09-1.52.09Zm-5,1.2c1.52-.21,3.16-.24,4.69-.35a33.78,33.78,0,0,0,3.52-.15V10l-.12,0c-.41,0-.74-.06-1.09-.09h0a4.88,4.88,0,0,0-.74,0l-.38,0c-1.47.05-3,.1-4.3.28-.82.09-1.52.23-2.34.32A7.67,7.67,0,0,0,52.43,10.56Z"/><path class="cls-1" d="M63.27,10.63l1.53-.1L66,10.42a24.36,24.36,0,0,1,6.18.2.19.19,0,0,0,.05-.26c-2.29-.59-4.55-.29-6.72-.37h-.05c-.94.18-2.46.12-3.63.26s-2.34.23-3.52.38C60,10.64,61.6,10.58,63.27,10.63Z"/><path class="cls-1" d="M49.59,12,51,12c1.29-.07,2.44-.16,3.62-.26l-2.6,0A21,21,0,0,0,49.59,12Z"/><path class="cls-1" d="M55.55,11.62l-1,.09,3.81-.1c2.08-.12,4.16-.22,6.24-.38l.7,0a96.58,96.58,0,0,0-11,.31l-.19,0,4.65-.11Z"/><polygon class="cls-1" points="62.78 10.67 63.11 10.67 63.5 10.64 63.27 10.63 62.78 10.67"/><path class="cls-1" d="M59.43,9.91h0l-1.13,0c-.52.05-1.07.1-1.63.13C57.64,10.05,58.65,10,59.43,9.91Z"/><path class="cls-1" d="M56.18,9.21h-.47l-.21.05h.33Z"/><path class="cls-1" d="M49.26,9.68l6-.36.28-.07a25.7,25.7,0,0,0-3.77.18,7.87,7.87,0,0,1-.82.12c-1.11,0-2.17.12-3.22.21l1.53-.08Z"/><path class="cls-1" d="M35.25,5l-.11,0v0Z"/><path class="cls-1" d="M35.47,4.65h0a.11.11,0,0,1,0,0Z"/><path class="cls-1" d="M35.13,4.94c0,.11,0,.22-.1.31l-.25-.07c-.08,0,0,.11,0,.17s-.12,0-.13,0,0,.13.1.18C35.06,5.28,35.78,5.4,35.13,4.94Z"/><path class="cls-1" d="M35.7,4.89l-.33-.11c-.06.05-.12.1-.11.18A1,1,0,0,0,35.7,4.89Z"/><path class="cls-1" d="M35.43,17.32s0,0-.06,0h.06s0,0,0-.06a4,4,0,0,1-.74.18l-.09.1A4.21,4.21,0,0,0,36.37,17C36,17.14,35.78,17.25,35.43,17.32Z"/><path class="cls-1" d="M34.59,17.73h-.07C34.58,17.76,34.59,17.75,34.59,17.73Z"/><path class="cls-1" d="M44.64,11.72a.89.89,0,0,0,.27-.29.91.91,0,0,0,.1-.23l-.18.18a2.52,2.52,0,0,1-.27.25,9.91,9.91,0,0,0-.78.71Z"/><path class="cls-1" d="M45,10.78c-.2.05-.14.1-.13.2l.19-.19Z"/><path class="cls-1" d="M45.18,10.87c-.13.07-.11.17-.16.33C45.14,11.07,45.21,11,45.18,10.87Z"/><path class="cls-1" d="M40.1,17.56a3.47,3.47,0,0,1-.52.42l-.12.23.05,0,.87-.63a2.85,2.85,0,0,0,.28-.31Z"/><path class="cls-1" d="M39.58,18c.23-.51-.39.24,0,0Z"/><polygon class="cls-1" points="40.46 15.36 40.5 15.33 40.61 15.24 40.46 15.36"/><path class="cls-1" d="M44.08,13.83c-.21.17-.42.35-.62.53a13.69,13.69,0,0,0,1.18-1c-.06,0-.13.06-.18.1A1.49,1.49,0,0,1,44.08,13.83Z"/><path class="cls-1" d="M38.74,16.65a14.23,14.23,0,0,0,1.76-1.32,17.46,17.46,0,0,0,3.14-2.61,8,8,0,0,1,.71-.67l.43-.36.25-.23c.29-.28.52-.53.28-.64l-.13.05a.18.18,0,0,0-.12-.08l0,0s0,0,0,0l-.1,0-.17-.06-.28-.1c.11.09-.95-.47-1.66-.87-.24-.13-.47-.15-.71-.29L41.41,9a0,0,0,0,0,0,0c-1-.51-2-1-3.1-1.48-.49-.22-.93-.48-1.39-.72-.17-.09-.12-.2-.23-.28a4.8,4.8,0,0,0-1.2-.84l0-.08-.22-.08c.36-.23,1.08-.08.44-.56h.13a1,1,0,0,0,.45,0L36,4.8a.16.16,0,0,0,.07-.11h0l.09,0,.06,0c.34,0,.82.13.78,0s-.28-.13-.54-.19l0,0c.33.1.08-.19.28-.14s.53.19.79.31c1,.52,1.88.93,2.88,1.39l.13.06a13.72,13.72,0,0,1,1.38.73H41.8a8.4,8.4,0,0,0,1.12.59l1.45.6.73.33.37.18.51.26,1.93,1,1,.51.53.26.27.13c.11,0,.08.09.13.13l-.52.31.48-.31c0-.11-.4-.23-.61-.35l-.71-.35-.82-.45c.26.16.54.3.82.45l.63.35.32.17s.13.06.14.09l0,.08a5.68,5.68,0,0,0-1.48,1,1.54,1.54,0,0,0-.28.09A7.61,7.61,0,0,0,46,13s-.25.21-.13.19c-.34.26-.7.53-1,.81a2.07,2.07,0,0,0-.34.43,41.59,41.59,0,0,1-3.6,3,10.72,10.72,0,0,1-1.19.69q.81-.58,1.58-1.2A4.69,4.69,0,0,0,42.73,16l.23-.26c-.52.45-1,.89-1.59,1.33l-1,.56,0,0,.72-.55a5.25,5.25,0,0,0,1.25-.93l.11-.13.23-.26-1,.82-.62.5-.44.24,0,0c.11-.1.28-.61,0-.57-.47.29-1,.65-1.5.92l-.59.33-.24.11c-.09-.05,1.55-1.05,1.46-1.06l-.3.12.22-.2a3.34,3.34,0,0,0,.52-.37c.33-.4.84-.66,1.23-1.07.24-.27.51-.6.78-.94,0,0,.15-.14.06-.15.32-.23.68-.49.71-.73l0,0,.07-.08a7,7,0,0,0,1.23-1.19c.16-.13.32-.26.5-.38a2.52,2.52,0,0,0-.4.28l-.1.1c-.41.34-.77.69-1.13,1l-.1.15-.09.06v0c-.33.35-.75.69-1,1a10.49,10.49,0,0,1-1.95,1.33c.31-.24.6-.49.88-.75L40,16l-.17.1-.36.2.35-.16-.62.47a9.17,9.17,0,0,1-4,1.53l.08-.12a4.7,4.7,0,0,0,1.83-.63c-.37.13-.62.25-1,.35,0,0,0,0,0-.06a4.23,4.23,0,0,1-.77.23l.24-.27a3.51,3.51,0,0,1,.51-.2,11,11,0,0,0,2.37-1,16.59,16.59,0,0,0,2-1.12C39.87,15.83,39.31,16.25,38.74,16.65ZM37,5.6l.21.05,0,0A.28.28,0,0,0,37,5.6Zm1.39.74a8.76,8.76,0,0,0-1.5-.69v0C37.3,5.9,37.87,6.13,38.39,6.35Zm1.36,1.43h0Zm7.14,2.85A12.38,12.38,0,0,1,45.41,10c-.12-.07-.33,0-.47-.12l-.25-.07-.36-.13.15.15c-.41-.26-.73-.24-1.13-.52a.15.15,0,0,1-.16,0c-.32-.14-.59-.36-.86-.44a8.81,8.81,0,0,0-.89-.39c-.06,0-.22,0-.36-.06l-.46-.22v0a2.76,2.76,0,0,0,.37.18c.39.15.84.33,1.22.5s.93.42,1.38.61l.68.28.33.13.17,0c.11,0,.25,0,.37.07a12.78,12.78,0,0,0,1.38.42A2.76,2.76,0,0,0,46.89,10.62Zm2.2.4.4-.27c0-.09-.31-.2-.5-.3l-.61-.3q-.59-.29-1.06-.57a13.2,13.2,0,0,0-1.55-.7c-.57-.21-.84-.21-.82,0,.28-.11,1.09.26,1.91.68l1.21.65.56.29.26.13c.11,0,0,.08.05.11C48.64,11,48.57,11.09,49.09,11ZM43.5,15.22a5.61,5.61,0,0,1,.67-.6Zm1.68-2.68c-.62.68-1.37,1.27-2,1.89a15.46,15.46,0,0,0-1.62,1.33l0,.07,0-.06c.21-.12.41-.2.59-.3l0,0,0,0a1.65,1.65,0,0,0,.36-.26l.16-.17a15.34,15.34,0,0,0,1.88-1.72c.35-.36.57-.69,1-1.06A2.86,2.86,0,0,0,45.18,12.54Z"/><path class="cls-1" d="M39.9,16.1q-.36.27-.74.53l-.58.42a9.66,9.66,0,0,1-3.48,1.25.3.3,0,0,0,0,.26A11.32,11.32,0,0,0,39,17.31l0,0c.44-.41,1.27-.81,1.78-1.32s1-1,1.51-1.49A19.89,19.89,0,0,1,39.9,16.1Z"/><path class="cls-1" d="M44.87,11l-.16.16-.12.15a1,1,0,0,1-.15.14l-.2.18c-.27.24-.52.48-.78.73.39-.3.86-.64,1.23-.9A.49.49,0,0,0,44.87,11Z"/><path class="cls-1" d="M43.06,12.74l.4-.4-1.75,1.39A34.37,34.37,0,0,1,38.9,16l-.34.22a18.15,18.15,0,0,0,5.15-3.77l.08-.08c-.74.56-1.44,1.14-2.15,1.69Q42.36,13.41,43.06,12.74Z"/><polygon class="cls-1" points="40.13 15.93 39.95 16.03 39.77 16.17 39.9 16.11 40.13 15.93"/><path class="cls-1" d="M42.21,15.47h0l.52-.43c.22-.23.46-.45.7-.67A12.57,12.57,0,0,0,42.21,15.47Z"/><path class="cls-1" d="M44.19,14.91l.22-.16.07-.12-.16.11Z"/><path class="cls-1" d="M48.12,11.79c-.42.25-.81.51-1.21.77l-.57.41-.28.21-.14.11-.08.07-1.27,1.12-.09.15c.31-.22.61-.44.89-.67l.4-.36.19-.18.31-.28a6.57,6.57,0,0,1,.58-.51l2.47-1.57-1.18.71Z"/><path class="cls-1" d="M49.5,2.79l-.1,0v0Z"/><polygon class="cls-1" points="49.75 2.52 49.72 2.5 49.72 2.53 49.75 2.52"/><path class="cls-1" d="M49.39,2.77a.6.6,0,0,1-.13.29L49.07,3C49,3,49,3.1,49,3.15s-.09,0-.1,0,0,.13.06.18C49.25,3.07,49.89,3.28,49.39,2.77Z"/><path class="cls-1" d="M49.93,2.78l-.29-.16c-.06,0-.13.09-.13.16A1,1,0,0,0,49.93,2.78Z"/><path class="cls-1" d="M49.71,19.06s0,0-.05,0l.05,0s0,0,0-.06a4,4,0,0,1-.59.48l0,.13a4.55,4.55,0,0,0,1.4-1.22C50.17,18.64,50,18.85,49.71,19.06Z"/><path class="cls-1" d="M49.11,19.79l-.06,0C49.12,19.82,49.12,19.81,49.11,19.79Z"/><path class="cls-1" d="M57.87,11.51a.84.84,0,0,0,.26-.46l-.35.38s-.24.23-.34.35-.24.26-.34.38l.41-.35Z"/><path class="cls-1" d="M58.06,10.72H58c-.14,0-.09.07-.06.14l.18-.14h-.06Z"/><path class="cls-1" d="M58.26,10.78c-.14.06-.1.14-.13.27C58.24,10.93,58.31,10.84,58.26,10.78Z"/><path class="cls-1" d="M54.13,17.78a4,4,0,0,1-.37.5l0,.25,0,0,.64-.76a2.65,2.65,0,0,0,.2-.34Z"/><path class="cls-1" d="M53.76,18.28c.07-.53-.29.31,0,0Z"/><polygon class="cls-1" points="54.06 15.56 54.09 15.53 54.19 15.43 54.06 15.56"/><path class="cls-1" d="M57.51,13.62c-.2.19-.39.39-.57.59A15,15,0,0,0,58,13.06c-.05,0-.12.07-.18.11A1.52,1.52,0,0,1,57.51,13.62Z"/><path class="cls-1" d="M52.61,17.21c.52-.56,1-1.12,1.48-1.67a23.88,23.88,0,0,0,2.89-3,7,7,0,0,1,.67-.74l.2-.19.11-.12.22-.22c.27-.28.5-.48.22-.54l-.14,0a.2.2,0,0,0-.11,0h0s0,0,0,0l-.12,0-.21,0-.33-.1-.13-.05h0l-.08-.05-.33-.23c-.22-.16-.43-.32-.64-.5l-.53-.46c-.21-.18-.43-.25-.64-.43l-.64-.53a0,0,0,0,0,0,0c-.9-.74-1.81-1.49-2.79-2.25-.44-.39-.8-.81-1.16-1.15-.14-.13-.05-.21-.13-.32a3.48,3.48,0,0,0-.83-1l0-.08-.17-.1c.35-.19,1,.1.52-.48h0l.11,0h0a1,1,0,0,0,.43.05l-.28-.19a.17.17,0,0,0,.09-.09h0l.08.05.07,0c.33.07.76.34.76.19s-.24-.21-.48-.33l0-.06c.3.19.12-.17.31-.06s.47.34.68.53a26.5,26.5,0,0,0,2.4,2.13l.11.09a13.61,13.61,0,0,1,1.17,1l-.11,0a7.17,7.17,0,0,0,1,.82l1.3.9.62.43.32.2L59,8.8a14.11,14.11,0,0,0,2.52,1l1.46.45.75.22c.25.07.22.13.39.21l-.09,0,.09,0-.31-.16-.63-.17c-.43-.12-.83-.24-1.23-.36l-1-.37c.33.13.67.25,1,.37l1.07.38c.16.06.38.12.5.17a.7.7,0,0,0,.17.16,6.45,6.45,0,0,0-1.41.71,3.38,3.38,0,0,0-.42.09c-.51.18-1,.36-1.4.52a3.08,3.08,0,0,0-.9.59s-.25.21-.11.19l-.41.33-.25.22a5.3,5.3,0,0,0-.45.45,2,2,0,0,0-.3.45l-3.12,3.38c-.28.29-.63.59-.93.86.38-.47.79-.93,1.2-1.4a5.1,5.1,0,0,0,1.16-1.19l.2-.28-1.35,1.47-.83.69v0l.57-.64A5.77,5.77,0,0,0,56,16l.09-.14.2-.28-.84.91-.51.56-.37.3,0,0c.09-.11.15-.63-.07-.56-.4.36-.86.81-1.22,1.17l-.45.45-.19.17c-.13,0,1.14-1.37,1.07-1.35l-.25.18.16-.24c.14-.16.36-.32.43-.46a12.71,12.71,0,0,1,1-1.23l.67-1s.14-.16,0-.16c.29-.26.63-.56.65-.8l0,0,.07-.09a8,8,0,0,0,1.14-1.31,5.54,5.54,0,0,1,.42-.37,1.73,1.73,0,0,0-.33.26l-.09.11c-.39.37-.72.77-1.05,1.15l-.08.16-.09.07v0c-.3.38-.69.76-.94,1.1a16.14,16.14,0,0,1-1.76,1.6l.76-.88-.91,1-.15.13-.31.28.31-.23-.5.59a17.09,17.09,0,0,1-3.19,2.86,1.36,1.36,0,0,1,0-.14,5.46,5.46,0,0,0,1.42-1.33c-.3.26-.47.47-.77.71,0,0,0,0,0-.06a4.8,4.8,0,0,1-.6.54l.1-.35a3.23,3.23,0,0,1,.39-.4c.66-.6,1.3-1.16,1.92-1.8l1.78-1.55C53.54,16.14,53.06,16.67,52.61,17.21ZM51,3.78l.18.11v0A.29.29,0,0,0,51,3.78ZM52.07,4.9a7.1,7.1,0,0,0-1.23-1.11h0C51.15,4.13,51.63,4.51,52.07,4.9Zm1,1.77h0ZM60,10.54a7,7,0,0,1-1.56-.46c-.12-.07-.34-.05-.47-.13s-.14,0-.28-.11a3.84,3.84,0,0,1-.38-.2l.15.18A8.1,8.1,0,0,1,56.31,9a.15.15,0,0,1-.16,0c-.28-.2-.51-.48-.76-.61a9,9,0,0,0-.79-.57c-.05,0-.22-.07-.34-.15l-.41-.33v0a3,3,0,0,0,.33.27c.36.25.76.51,1.1.76s.82.61,1.23.9c.22.15.46.31.69.45l.36.2a1,1,0,0,0,.21.09l.38.08a7.27,7.27,0,0,0,1.45.35A3.43,3.43,0,0,0,60,10.54Zm3.67.16,0,0a7.19,7.19,0,0,0-1.55-.51A16.72,16.72,0,0,1,60.5,9.6c-.4-.15-1.19-.43-1.71-.66l-.36-.14-.23,0c-.13,0-.21,0-.21.13a12.54,12.54,0,0,1,2.47.92c1.09.45,2.44.79,2.5.88S63.19,10.74,63.63,10.7Zm-6.57,4.37a5.53,5.53,0,0,1,.62-.66Zm1.46-2.82c-.6.72-1.27,1.38-1.88,2.07-.46.53-1.13.92-1.47,1.49l.06.07,0-.07c.19-.15.37-.24.54-.36l0,0,0,0a1.72,1.72,0,0,0,.33-.3L56.3,15A16.7,16.7,0,0,0,58,13.06c.15-.19.29-.37.42-.56a6.37,6.37,0,0,1,.5-.57A2.5,2.5,0,0,0,58.52,12.24Z"/><path class="cls-1" d="M53.62,16.41l-.61.68-.45.55a16.88,16.88,0,0,1-2.74,2.46.3.3,0,0,0,.15.22,23.06,23.06,0,0,0,3.09-2.55l0,0c.3-.5,1-1.05,1.44-1.63s.89-1.1,1.31-1.67C55.07,15.11,54.4,15.79,53.62,16.41Z"/><path class="cls-1" d="M57.94,10.88l-.15.15-.11.14-.06.08a.54.54,0,0,1-.11.13c-.27.27-.51.54-.74.81l.6-.53.45-.36A.37.37,0,0,0,57.94,10.88Z"/><path class="cls-1" d="M56.4,12.64l.37-.44c-.57.53-1.1,1-1.64,1.57-.85.91-1.7,1.8-2.52,2.74l-.29.31A34.83,34.83,0,0,0,57,12.25l.07-.09c-.71.64-1.35,1.27-2,1.91Z"/><polygon class="cls-1" points="53.82 16.19 53.66 16.32 53.51 16.49 53.62 16.41 53.82 16.19"/><path class="cls-1" d="M55.8,15.44h0L56.3,15c.2-.25.41-.49.64-.74A10.69,10.69,0,0,0,55.8,15.44Z"/><path class="cls-1" d="M57.71,14.7l.21-.18.06-.12-.15.12Z"/><path class="cls-1" d="M62.3,11.39l-1.73.72a6.24,6.24,0,0,0-1.23.83l-.27.24-.15.14-.29.3-.57.61-.08.16c.29-.24.57-.49.82-.74l.38-.38.68-.61.29-.26a2.74,2.74,0,0,1,.36-.22L64,10.71l-1.7.66Z"/><text class="cls-2" transform="translate(0 51.8)">PINTURA</text></g></svg>