<svg xmlns="http://www.w3.org/2000/svg" viewBox="0 0 267.93 43.05"><title>web movil_recursos_</title><g id="Capa_1" data-name="Capa 1"><path d="M253.51,19.13c.1-1,.83-3.25-.56-3.48a37.51,37.51,0,0,0-6-.1c-.63,0-1.62.2-2.12-.29a.92.92,0,0,1,.31-1.49,17.48,17.48,0,0,1,4.37-1.42c1.69-.38,3.35-.75,5-1.1,1.22-.25,3.58-1.23,4.36.25s.23,3.79,0,5.35c-.13.83-.39,1.33.59,1.16s2.08-.41,3.13-.57c1.36-.2,3.83-.8,4.92.29.78.79.15,1.29-.32,2.05a3.3,3.3,0,0,1-1.52,1.59,28.47,28.47,0,0,1-4.89,1.12,12.34,12.34,0,0,0-2.39.22c-.49.22-.43.68-.52,1.19-.15.9-.31,1.79-.41,2.7-.12,1.12-.21,1.28.92,1.5a32.7,32.7,0,0,0,5.45.53,5,5,0,0,1,2.46.29,1.19,1.19,0,0,1,.06,1.72,2.9,2.9,0,0,1-1.85.69c-.92.12-1.82.28-2.73.47a35.47,35.47,0,0,1-6.16,1c-1.44,0-3.52.34-4.59-.9a3.4,3.4,0,0,1-.62-2.76,46.71,46.71,0,0,1,1.58-5.8c-1.13,0-7.52.33-6.63-2.08.46-1.22,2.52-1,3.53-1.26C250.45,19.68,252,19.32,253.51,19.13Z"/><path d="M191.45,24.62c-.78.12-1.57.14-2.32.27a7,7,0,0,0-1.5.19c-.43.21-.53.7-.71,1.11-.63,1.5-1,3.39-2.18,4.48-.84.77-4,.56-4.17-.79a5.38,5.38,0,0,1,.84-2.67,17.07,17.07,0,0,1,1.23-2.59c-.8-.25-2.11-.39-2.3-1.38s.62-1,1.38-1.08,1.9-.14,2.3-1,.84-1.78,1.31-2.68A69.13,69.13,0,0,1,188.82,12c.46-.68,1-2.06,1.86-2.33,1-.34,1.61.38,2.36.87s1.53.94,1.89,2a28.71,28.71,0,0,1,.82,3.56c.23,1.13.44,2.27.64,3.4a4.69,4.69,0,0,0,.13.74c.2.54,0,.26.44.42s1.23,0,1.73.35a1.27,1.27,0,0,1,0,2.12c-.92.61-1.64.27-1.47,1.55s.32,2.45.55,3.66c.14.7.8,2.59.35,3.26a3.44,3.44,0,0,1-1.3.71,4.61,4.61,0,0,1-1.76.08c-1.05,0-1.84.16-2.37-.83a2.81,2.81,0,0,1-.16-1.42,17.94,17.94,0,0,0-.27-1.93A24.83,24.83,0,0,0,191.45,24.62Zm-.56-3.46-.36-2.9-.73,1.37a4.82,4.82,0,0,0-.65,1.22C189.05,21.66,190.32,21.23,190.89,21.16Z"/><path d="M146.79,24.45a7.4,7.4,0,0,0,.36-2.3c.09-1,.19-2,.28-3s.15-1.75.21-2.62a11.09,11.09,0,0,1,.19-2.79c.46-1.24,2.84-1.89,4-1.9.62,0,1,.17,1.11.81s0,1.69,0,2.47c.14,3.76-.2,7.55,0,11.3.09,1.45.55,3.82-.51,5a3,3,0,0,1-1.74.88,10,10,0,0,1-2.67.31c-1.75-.18-2.92-2.14-4-3.32a28,28,0,0,0-2.24-2.3,6.31,6.31,0,0,0-2.47-1.61c.07,1.07.65,3.28-.19,4.09a5.3,5.3,0,0,1-3.34.91c-1.54-.09-1.27-2.24-1.37-3.32-.15-1.59-.28-3.23-.29-4.83a3.72,3.72,0,0,1,.45-2.05,3.56,3.56,0,0,1,1.71-.94,3.44,3.44,0,0,1,2-.49,7.4,7.4,0,0,1,1.89,1.06c1.25.77,2.37,1.65,3.56,2.49.47.33,1,.47,1.43.84S146.22,24,146.79,24.45Z"/><path d="M110.44,34.18c-1.53-.15-3.05,0-4.59-.08a9.14,9.14,0,0,1-4.37-1.27,8.72,8.72,0,0,1-4.36-7.41c.08-2.91,2.23-5.74,4.61-7.29a10,10,0,0,1,4.15-1.67,5.12,5.12,0,0,1,2,0,4.9,4.9,0,0,1,1.58,1.14c.64.61,2.45,2.16,1.71,3.15-.58.79-2.64.62-3.5.75-1.63.27-2.71,1.24-4,2.17a3.43,3.43,0,0,0-1.49,3.21c.34,3.19,6,2.1,8,1.55.78-.21,1.55-.47,2.32-.72A8.73,8.73,0,0,1,115,27c1.58,0,1.14,2.4,1,3.42-.31,1.82-.39,3.62-.53,5.47-.07.87-.29,1.71-.35,2.58s0,1.83-.53,2.43c-.89,1-3.4-1.52-4-2.21a2,2,0,0,1-.43-1.84C110.17,36,110.25,35.05,110.44,34.18Z"/><path d="M228.85,19.32c1.71-.19,3.43-.37,5.15-.52,1.14-.1,3.46-.74,4.3.32,1.11,1.41-.72,2-1.78,2.22-1.77.37-3.53.82-5.3,1.19-.45.09-1.52.07-1.74.57s.27,1.75.44,2.23c.57,1.63,1.79,2,3.36,2.32s3.36-.61,5-.23a1.6,1.6,0,0,1,1.15,1.28,1.43,1.43,0,0,1-.71,1.6c-1.27,1-2.63,1.13-4.22,1.41a12.78,12.78,0,0,1-4.85,0,6.1,6.1,0,0,1-3.94-2.25A9.68,9.68,0,0,1,224,25.18a82.88,82.88,0,0,1-.67-10,4.74,4.74,0,0,1,.11-2.29c.36-.59,1.19-.49,1.78-.51,1.8-.08,3.6-.2,5.4-.25s3.88-.57,5.78-.35c.79.09,1.59.27,1.63,1.14a1.42,1.42,0,0,1-1.06,1.56,37.07,37.07,0,0,1-6,1.14c-.64.1-2,.07-2.26.78a4.65,4.65,0,0,0,.1,1.38C228.83,18.3,228.83,18.81,228.85,19.32Z"/><path d="M16.5,21.06a81.84,81.84,0,0,0-.08,8.44,16.62,16.62,0,0,1-1.22,7.14c-.9,2-3.17,3.65-5.06,4.71C8,42.56,5.54,43.44,3.08,42.87,2.14,42.65.7,42.63.13,41.74-.56,40.65,1.63,40.3,2.31,40a11.25,11.25,0,0,0,3.08-1.68,15.41,15.41,0,0,0,3-2.61C10,33.64,9.9,30.67,10,28.17c.08-2.73-.23-5.42-.32-8.14,0-.83,0-1.66,0-2.49,0-.4-.14-1.57.16-1.92s1-.26,1.48-.33a11.62,11.62,0,0,1,2-.19,5.71,5.71,0,0,1,1.81.35c.72.3.72.63.89,1.38A39,39,0,0,1,16.5,21.06Z"/><path d="M30.22,25.86c.79,1.4,1.37,2.74,3,3.22a14,14,0,0,0,5.82-.14c.72-.12,3.79-.7,3.19,1.06-.52,1.5-3.28,1.62-4.52,1.91-3.16.73-7.61,2.16-10.45-.15s-3.5-5.95-4-9.33c-.14-.91-.14-1.84-.25-2.76s-.46-1.69,0-2.55.83-.46,1.59-.53,1.7-.46,2.56-.54c3.61-.31,7.22-1.33,10.85-1.82A6.4,6.4,0,0,1,40.37,14c.54.19,1,.86.57,1.36s-1.88.6-2.52.75c-1.08.26-2.12.6-3.18.91-.85.25-1.71.45-2.55.71l-1.21.38c-.35.11-1.44.3-1.66.59s-.16,1.81-.17,2.35c0,1-.1,1.55,1,1.48,2.17-.14,4.38-.49,6.54-.74.93-.11,1.9-.36,2.84-.39.74,0,1.94.54,1.34,1.46-.4.61-1.61.65-2.25.79-.92.21-1.83.42-2.73.71C34.38,25,32.26,25.31,30.22,25.86Z"/><path d="M163.35,26.23a16.15,16.15,0,0,1-3.24-.22c-.5-.1-1.61-.15-1.73-.81s.74-1.47,1.28-1.7a7.93,7.93,0,0,1,2.41-.11c.47,0,.91-.19,1.39-.2.25,0,.55.12.78,0,.54-.36.75-1.74,1-2.32s.79-1.33,0-1.67-2.07-.08-2.94-.24c-.52-.1-1.49-.23-1.78-.78s.27-1.22.8-1.47a10.22,10.22,0,0,1,2.59-.47c.83-.15,1.64-.27,2.48-.34,1.62-.13,3.19.11,4.16,1.52,1.1,1.6-.06,3.61-.57,5.21,1.41.23,3.17-1.2,4.41-.09.46.41,1,1.2.84,1.85-.26.88-1.32.85-2,1.1a7,7,0,0,1-1.81.42c-.65.07-2.12-.11-2.54.43a4.55,4.55,0,0,0-.3,1.38c-.1.46-.2.92-.28,1.39-.17,1-.23,1.6.7,2.09a5.82,5.82,0,0,0,2.17.33c.95.09,1.94.17,2.89.18a14.48,14.48,0,0,1,2.36,0,1.54,1.54,0,0,1,1.18,1.7c-.4,1.28-3.82,1.38-4.87,1.56a22.83,22.83,0,0,1-6,.07c-1.58-.15-4.54-.44-4.68-2.53S162.75,28.14,163.35,26.23Z"/><path d="M54.39,36.31a14.36,14.36,0,0,1-4.42.37c-.79,0-2.45-.53-2.32-1.68s1.88-1.22,2.65-1.48a5,5,0,0,0,2.38-1.78c.64-1-.15-2.29-.8-3a22.46,22.46,0,0,0-2.69-2.15A33.15,33.15,0,0,1,46.44,24a4.66,4.66,0,0,1-1.15-3.28,4.21,4.21,0,0,1,2-3.16A10.11,10.11,0,0,1,50.62,16a20.94,20.94,0,0,1,3.82-.81c.65-.09,2.84-.54,2.34,1-.16.49-1.16.79-1.57,1l-2,1.09c-1.14.61-2.08,1.07-1.67,2.49a5.45,5.45,0,0,0,1.79,2.43c1,1,2.11,1.93,3.17,2.9,1.49,1.37,2.89,3.06,2.67,5.2a5.65,5.65,0,0,1-1.84,3.35C57.07,34.9,54.49,36.65,54.39,36.31Z"/><path d="M220.06,29.91C222,31.3,217.78,32.77,217,33a32.73,32.73,0,0,1-6.22,1.43c-2,.17-4.4.37-5.47-1.73-.94-1.84-1-4.23-1.11-6.24-.12-2.28-.46-4.48-.37-6.78.08-1.9-.29-4,2.22-4.34,2.23-.27,2.4,2.34,2.68,3.86.45,2.43,1,4.83,1.39,7.26a8.9,8.9,0,0,0,.5,1.84,6.43,6.43,0,0,0,.55,1.51c.6.78,2.23.12,3,0,1.12-.16,2.25-.17,3.37-.24A5.56,5.56,0,0,1,220.06,29.91Z"/><path d="M126.13,34a7.42,7.42,0,0,1-4.24-1.53,7.15,7.15,0,0,1-1.4-1.26,10,10,0,0,1-1-2.35c-1.13-2.91.66-6.26,2.78-8.2,1.11-1,2.13-1.57,3.58-.91.72.33,1.26.09,2,.23a5.33,5.33,0,0,1,1.81.81c1.33.79,1.56,1.92,1.91,3.33a13.89,13.89,0,0,1,.71,5.18,5.19,5.19,0,0,1-2.78,3.85C129.23,33.31,126.2,34.32,126.13,34Zm-.1-10.8c-.88,1.19-1.79,2.39-1.73,4,0,1,.8,3.16,2.21,2.85,1-.23,1.27-2,1.11-2.87A7.47,7.47,0,0,0,126,23.21Z"/><path d="M66.57,15.85c.23.83-1.34,1.52-1.86,1.91s-1.54.91-1.28,1.84a7.41,7.41,0,0,0,1.8,2.31c.72.7,1.59,1.26,2.34,1.93,1.46,1.28,3,3,2.27,5.1a9.93,9.93,0,0,1-1.79,2.59,4.83,4.83,0,0,1-2.41,2,5.26,5.26,0,0,1-2.94,0c-.71-.17-1.76-.15-1.52-1.25.17-.83,1.27-1.36,1.72-2a10.72,10.72,0,0,0,.71-1A2.9,2.9,0,0,0,63.73,28c-.05-1.16-.47-1.33-1.25-2a29.27,29.27,0,0,0-2.4-2.06C58.89,23,56.58,21.18,57,19.4a5.14,5.14,0,0,1,1.3-2A8.37,8.37,0,0,1,60.87,16a11.65,11.65,0,0,1,3.63-.9C65.5,15.06,66.47,14.71,66.57,15.85Z"/><path d="M199.36,0c.45.16.89.34,1.35.46s1.26,0,1.45.5c.32.76-1.26,1.71-1.78,2.08-1.43,1-3.89,3.21-5.77,2.6-.62-.2-1.78-.66-2.05-1.31-.38-.9.44-1.08,1.1-1.34C195.67,2.21,197.4.87,199.36,0Z"/></g></svg>