<svg xmlns="http://www.w3.org/2000/svg" viewBox="0 0 36.59 36.59"><defs><style>.cls-1{fill:#fff;}</style></defs><title>web movil_recursos_</title><g id="Capa_1" data-name="Capa 1"><circle cx="18.3" cy="18.3" r="18.3"/><path class="cls-1" d="M29.91,9.57c0,.07,0,.13,0,.19A4.78,4.78,0,0,1,28,12.07s-.09,0-.12.11a9.66,9.66,0,0,0,2.67-.74,8.53,8.53,0,0,1-.68.91,9.48,9.48,0,0,1-1.6,1.49.21.21,0,0,0-.1.2A13.63,13.63,0,0,1,26.58,21a13,13,0,0,1-7.79,6.57,13.48,13.48,0,0,1-3,.56,13.64,13.64,0,0,1-7.29-1.38A10.27,10.27,0,0,1,7.3,26a9.78,9.78,0,0,0,7-2l-.43,0a4.74,4.74,0,0,1-4-3.16c-.05-.13,0-.13.13-.11a4.79,4.79,0,0,0,2-.11,4.8,4.8,0,0,1-2.76-1.7,4.72,4.72,0,0,1-1.06-3.06,4.79,4.79,0,0,0,2.12.59c0-.07-.09-.09-.13-.12a4.8,4.8,0,0,1-1.37-6.14c0-.09.08-.12.16,0a13.54,13.54,0,0,0,7.61,4.62,13.42,13.42,0,0,0,1.94.27.68.68,0,0,0,.23,0,5.12,5.12,0,0,1-.11-1.36,4.68,4.68,0,0,1,1.67-3.35,4.79,4.79,0,0,1,6.52.26.23.23,0,0,0,.25.07,9.71,9.71,0,0,0,2.74-1l.12-.06Z"/><path class="cls-1" d="M29.92,9.57h0Z"/></g></svg>