<svg xmlns="http://www.w3.org/2000/svg" viewBox="0 0 36.59 36.59"><defs><style>.cls-1{fill:#fff;}</style></defs><title>web movil_recursos_</title><g id="Capa_1" data-name="Capa 1"><circle cx="18.3" cy="18.3" r="18.3"/><path class="cls-1" d="M22.41,27.74H14.18a5.34,5.34,0,0,1-5.33-5.33V14.18a5.34,5.34,0,0,1,5.33-5.33h8.23a5.34,5.34,0,0,1,5.33,5.33v8.23A5.34,5.34,0,0,1,22.41,27.74ZM14.18,10.6a3.59,3.59,0,0,0-3.58,3.58v8.23A3.59,3.59,0,0,0,14.18,26h8.23A3.59,3.59,0,0,0,26,22.41V14.18a3.59,3.59,0,0,0-3.58-3.58Z"/><path class="cls-1" d="M18.3,23A4.74,4.74,0,1,1,23,18.3,4.75,4.75,0,0,1,18.3,23Zm0-8a3.29,3.29,0,1,0,3.29,3.29A3.29,3.29,0,0,0,18.3,15Z"/><circle class="cls-1" cx="23.29" cy="13.41" r="1.1"/></g></svg>