<svg xmlns="http://www.w3.org/2000/svg" viewBox="0 0 78.6 55.65"><defs><style>.cls-1{fill:#1d1d1d;}.cls-2{font-size:25px;font-family:JessLight-Regular, Jess Light;letter-spacing:0.1em;}</style></defs><title>web movil_diseno_4</title><g id="Capa_1" data-name="Capa 1"><path class="cls-1" d="M64.66,10.91c.31-.27-.25,0,.18-.2A.23.23,0,0,1,64.66,10.91Z"/><path class="cls-1" d="M63.83,9.5c-1.23-.56-2.4-1.86-3.77-2.39-.15-.07.15-.16-.21-.31a30.37,30.37,0,0,1-4.67-2.44h.12c-.28-.17-.72-.14-1-.3,0,0,.12,0,.07-.09-.12.08-.59-.19-.76-.16s-.06-.17-.2-.29l-.23.05c-.62.1-1.22-.5-2-.6,0,0,.12,0,.08-.06-1.18-.23-2.56-.79-3.85-1.07.06,0,.13-.1.07-.17-.1.12-.5,0-.85,0-.12-.18-.62,0-1-.16l0,0c-.33.1-.43-.16-.71,0l-.18-.14c-.16.19-.43-.16-.69-.08v0c-.24,0-.36-.09-.58-.07l0,0c-.52,0-.82-.1-.81.06-.18-.14.5,0,.23-.24-1.72.08-3.48.15-5.2.29-.2,0-.33,0-.38-.11a4.31,4.31,0,0,0-.79.2c.06,0-.12-.07-.21-.07-.32,0-.32.21-.67.19.13-.06.17-.12.12-.17a4,4,0,0,1-1,.29s.13-.06.11-.11c-.36.19-.69.07-1,.22L34,1.63c-.55,0-.12.22-.59.23.1,0,.06-.08.07-.12A10,10,0,0,1,32,2.2a0,0,0,0,0,0,0,10,10,0,0,0-1.43.36c-.19,0,0-.23-.47-.08.06.18-.8.28-.46.41a6.25,6.25,0,0,0-1.34.33c.16-.12-.26-.16.07-.27l-.29,0c0-.08.27-.05.16-.12s-.65.26-.81.29a3.41,3.41,0,0,1-1,.68c.22-.14-.2-.15,0-.23l-.59.57c-.16.07-.08-.13-.31,0,0,0-.07.11-.13.17s-.67.29-.81.14.26-.13.05-.13-.3.18-.6.3v0c-.21.05-.56.3-.31.31s-.09-.08.13-.11a1.89,1.89,0,0,1-.74.44c.09-.07.06-.11.08-.17A8.57,8.57,0,0,1,22,5.77c0,.08.1-.22.19-.2-.63.13-1.11.68-1.65.74.07-.05.09.09.08.07-.28.12-.32,0-.47.12,0-.06-.21.12-.38.24s-.06,0,.09-.1a8.37,8.37,0,0,1-1.79,1s-.26.35-.39.42V7.94c-.15,0-.43.25-.5.18-.21.28,1-.7.69-.4-.14,0-.43.45-.43.27-.26.15-.45.4-.75.46.08,0,.13-.26-.08-.13-.35.24-.08.11-.35.32l-.16.15c0,.1-.33.18-.13.21-.09-.05-.5.36-.56.19l0-.16c-.15.11-.17.29-.26.43s-.08,0-.09,0a.13.13,0,0,1-.09.18c-.06,0-.15.06-.1.14l-.16.06c-.05,0-.12.05-.07.1s.07.17,0,.22a1.25,1.25,0,0,1,.47.43c-.06,0-.12-.09-.17-.07.08.19.16.19.31.3-.05,0,.19.38.31.59s.26,0,.33-.06c.06.34.7.38.86.72-.1,0-.4-.15-.24,0s.53.16.84.47v-.21c.1.19.59.22.46.36.16,0,.41.29.46.11.55.46,1.58.68,1.84,1.15.11,0,.33.15.32,0s-.25,0-.28-.12a.12.12,0,0,0,.14,0c.19.13.34.21.09.26.41.3.59-.06,1.14.25-.06.06,0,.1.15.16l.37,0c.36.19.15.24.11.36.21.07.45.18.58.13l.18.25c-.13-.18.19,0,.3,0h-.11c0,.06.26.13.39.16s-.23-.21-.35-.28c.12,0,.28.07.44.06-.09.1.3.21.45.29s.25,0,.3,0,.3.13.12.15-.12-.11-.25-.1c.1.09.05.19.33.21s0-.24.37,0c-.11,0-.14,0-.23,0L25,16l.05-.1s0,0,0,.06.53.16.65.06a4.23,4.23,0,0,1,.5.27h0a1.07,1.07,0,0,0,.66.16l0,0a1.32,1.32,0,0,0,.53.09c.25.17,0,.43.32.39s.51-.07.41-.17a12.29,12.29,0,0,1,1.56.49c.08,0,0-.06.2-.05a13.24,13.24,0,0,1,2.2.54c-.23,0,0,.11,0,.17.2-.07.21.14.3,0s0-.15-.19-.22a5,5,0,0,1,1.41.24c-.12-.06,0-.08.08-.1-.05.16.29.22.55.19l0-.09.16.12c.1,0,.13-.19.38-.08a.17.17,0,0,0,.07.11,1.94,1.94,0,0,1,1-.06l.23.16c.13,0,.34-.08.12-.14a3,3,0,0,1,1,.27,11.16,11.16,0,0,1,3.14-.21l0,.07c.27.07.14-.13.33-.07-.09.07.21.15,0,.24.39.08.5-.12.75-.16,0-.1-.2.06-.15-.06s.54.08.6-.07c.1.06,0,.16,0,.22l.24-.07c.29.17-.66.3-.36.51l.22,0c.21.15-.58.17,0,.22.24-.07.44-.28.23-.35.5,0,.23-.35.77-.34.15.09-.43,0-.33.14s.51-.07.73,0c-.25-.05,0-.2.12-.23s-.18.14.21.15c.06-.08.41-.15.11-.21.14-.19.4,0,.6-.1.13.13-.39.32,0,.38-.07-.13.51-.19.28-.37.16,0,.18.13.07.22.24.07.55-.26.64,0l.07-.14c.07,0,.18.06.3.13s.63-.23.63,0c.06,0,.51-.08.32-.19s-.31.14-.48,0c.21.13.4-.06.55-.14l0,.07c.09,0,.31-.06.35-.15s0,.1.06.11l.08-.13c.36-.13.13.19.49.07l-.26.15c.06,0,.21,0,.38,0s.14-.28.18-.37c.19-.1.12.09.3-.07l-.23.2s.23.13.51,0,.4-.32.1-.29c.14,0,.35,0,.27.06.3-.14-.08-.1.17-.25.13,0,.51,0,.76,0l-.23.27.19-.07c-.2.23.16.06.08.25a1,1,0,0,0,.39-.22c-.47-.08.31-.47.12-.64.5-.26.52.37.94-.17-.11,0,.08-.28-.22-.09.33-.11.14-.29.56-.37-.25.2.39.08,0,.37,0-.08-.25,0-.31.09.17,0,.06.22.39.08s.47-.22.39-.31-.31.14-.22,0c.39-.21.53-.05.61-.33-.25.12-.36,0-.39-.06l.28-.17,0,.1c.5-.14.08-.2.55-.37l.28.06c-.05.18-.69.22-.52.4.3-.11.36-.26.66-.32l-.19.13c.11,0,.33.2.69-.14.19-.16,0-.1,0-.18.47-.22.58-.37.88-.51,0,.18.55-.22.28.09a1.63,1.63,0,0,0-1,.5c.25.11-.39.13-.41.36.39-.16.45,0,.56.13a.78.78,0,0,0,.25-.18c0-.13-.14-.07-.2-.18a2.53,2.53,0,0,0,1-.6c.17,0,.17.13,0,.21a14.82,14.82,0,0,1,1.53-.66c-.39,0,.51-.29.23-.34s-.55,0-.45-.1,0,.08.12.09c.16-.19.39,0,.51-.23-.43.27,0,.26,0,.44.29-.23,0,.11.36,0a9.86,9.86,0,0,1,1-.7A5.75,5.75,0,0,0,60,13c.24,0,.19.19.43.09s-.29-.06.14-.2l0,.05c.1-.1.77-.3.76-.59l0,.23c.08,0,.13-.1.18-.15s.15.05.05.16c.31,0,.49-.32.74-.48h-.22c.39-.34.74-.44,1.13-.74l0,.1.21-.22c0,.13.26,0,.34-.13l-.49.66c-.22.06.12-.24-.05-.26s-.52.26-.52.39a.62.62,0,0,0,.24-.22c.13.1-.1.24-.15.4C62.89,12,63,12,63,12a1.67,1.67,0,0,1-.52.44c.14-.16-.15,0-.1-.1.05.13-.18.31-.52.48-.31,0-.56.44-1,.62a1.71,1.71,0,0,1,.43-.59c-.27.07-.26.16-.53.23a1,1,0,0,1-.36.56l-.07-.08c-.26.2-.19.33-.57.5L58,14.82,58,14.74c-.18.33-.87.49-1.2.75-.66.19-1.32.69-1.72.67a29.75,29.75,0,0,1-3.2,1.45l.14-.22c-.17.18-.17,0-.36.08.28,0-.22.26-.34.4a5.58,5.58,0,0,0-1.63.74l-.05-.09a3.71,3.71,0,0,1-1.69.49.64.64,0,0,0-.4,0,3,3,0,0,1-1,.42,6.45,6.45,0,0,1-1.35,0,38.25,38.25,0,0,1-4.17.26l-.1-.12a32.76,32.76,0,0,1-4.24.05l.12-.2c-.36-.08-.84,0-.76.16-.37-.08-.93,0-1.15-.15-.38-.07-.47.05-.79,0a12,12,0,0,0-1.75-.24l.18,0c.09,0,.1-.12-.07-.16s-1-.21-.74.07a18.67,18.67,0,0,1-2.48-.6c0,.08-.14,0-.23.07a16,16,0,0,0-1.85-.54c-.09-.06.2-.06-.06-.15s0,.08-.23.06a20.85,20.85,0,0,1-3-1.15,41.5,41.5,0,0,1-4.86-2l0,0c-.59-.07-1.11-.75-1.65-.72-.1-.11-.45-.27-.31-.3-.47-.11-1-.76-1.69-1.05a.39.39,0,0,0,.15.08A10.51,10.51,0,0,1,14,11.38c.07,0,.17.13.22.12s-.22-.22-.34-.33-.31-.31-.26-.44c-.13-.19-.21-.1-.12,0L13.09,10l-.23-.39c-.08-.08,0-.11.08-.15l.18-.13c.24-.18.49-.36.76-.53l.64-.44c.65-.45,1.31-.91,2-1.33,1.06-.43.25.31.95-.28.09,0,0-.1,0-.07.27-.23.59,0,.75-.24-.15-.08.1-.14.07-.23a3.52,3.52,0,0,0,1.28-.52v.09c.49-.46,1.2-.69,1.59-1.12A52,52,0,0,1,31,1.17,45.68,45.68,0,0,1,41.12,0a4.33,4.33,0,0,0,1.79.14s-.09,0,0,.07c.05-.16.64,0,.73-.13A23.27,23.27,0,0,1,47.45.7c-.21,0-.35.07-.1.12l.28,0,0,.06c.17,0,.38,0,.22-.1A30.27,30.27,0,0,1,52.53,2.4c1.49.64,3,1.31,4.44,2,.67.39,1.68.82,2.44,1.2A66.72,66.72,0,0,1,65.2,10,2.18,2.18,0,0,1,63.83,9.5Z"/><path class="cls-1" d="M64.27,11.21c-.12,0-.38.11-.25-.11C64.08,11.15,64.25,11.14,64.27,11.21Z"/><path class="cls-1" d="M57.3,14.21s-.11,0-.14,0,.13-.14.22-.14C57.3,14.13,57.32,14.16,57.3,14.21Z"/><path class="cls-1" d="M55.53,15c0-.08.35-.3.57-.4Z"/><path class="cls-1" d="M53.77,15.38c-.17,0-.14,0,.05-.12C53.85,15.29,53.79,15.33,53.77,15.38Z"/><path class="cls-1" d="M53.71,15.58a.51.51,0,0,1-.3,0C53.44,15.67,53.71,15.45,53.71,15.58Z"/><path class="cls-1" d="M50,16.84c-.08,0-.25.17-.36.12C49.78,17,50.06,16.72,50,16.84Z"/><path class="cls-1" d="M48.41,17.52a.28.28,0,0,0-.14,0c-.11,0,0-.09.06-.12Z"/><polygon class="cls-1" points="17.03 12.22 17.21 12.29 17.15 12.34 17.03 12.22"/><path class="cls-1" d="M23,5.38c.16-.12.15,0,.19,0C23,5.46,23.16,5.28,23,5.38Z"/><polygon class="cls-1" points="30.21 2.62 30.16 2.64 30.14 2.49 30.21 2.62"/><path class="cls-1" d="M13.92,9.68c-.19,0,.1.13-.12.06C13.82,9.68,13.86,9.63,13.92,9.68Z"/><path class="cls-1" d="M64.3,10.18c-.67.22-1.39-.27-2.08-.09-.08,0,0-.21-.14-.17a4.45,4.45,0,0,1-2.44-.19l0-.06c-.15,0-.33.15-.49.12,0,0,.05-.06,0-.11,0,.12-.29.05-.35.14s-.06-.14-.14-.19l-.09.13c-.25.32-.61,0-1,.14,0,0,.05-.06,0-.09a9,9,0,0,1-1.85.23.21.21,0,0,0,0-.19c0,.14-.22.18-.38.21-.07-.15-.28.13-.48.05l0,0c-.14.15-.21-.09-.33.09l-.09-.11c-.06.21-.21-.11-.32,0v0c-.11.05-.17-.05-.27,0v0c-.24.05-.38-.06-.38.1-.08-.13.23-.06.1-.24a12,12,0,0,1-2.41.14c-.09-.06-.15-.08-.17-.14s-.3,0-.37.11-.05-.08-.09-.09-.16.18-.32.1a.12.12,0,0,0,.06-.15c-.14.12-.32.11-.48.15,0,0,.06,0,.06-.09-.18.14-.32,0-.48.06l.06-.09c-.25-.11-.07.19-.29.13.05,0,0-.07,0-.1-.2.17-.52.11-.73.17a.05.05,0,0,0,0,0,3.1,3.1,0,0,0-.69,0c-.09,0,0-.23-.2-.19,0,.19-.39.08-.26.29a1.54,1.54,0,0,0-.64,0c.09-.07-.1-.23.07-.24l-.12-.11c0-.08.13,0,.09-.07a1.47,1.47,0,0,1-.39.05c-.15.11-.29.33-.54.35.12-.07-.07-.2,0-.24l-.34.36c-.08,0,0-.15-.14-.1s0,.08-.08.12-.34,0-.38-.14.13,0,0-.1-.16.06-.31.07v0c-.1,0-.29.08-.19.18s0-.11.08-.06a.49.49,0,0,1-.4.14c.05,0,0-.08.07-.13a1.86,1.86,0,0,1-.65.25c0,.09.08-.16.12-.11-.29-.12-.6.17-.84,0,0,0,0,.12,0,.1s-.13-.14-.23-.09-.11,0-.21,0,0,0,.06,0a1.69,1.69,0,0,1-1,.07s-.19.18-.26.17l0-.11c-.06-.07-.23,0-.24-.09-.15.14.57-.12.37,0-.05-.1-.28.18-.24,0-.14,0-.28.13-.41,0,0,0,.11-.16,0-.15s-.06.05-.22.09l-.1,0c0,.11-.18,0-.1.11,0-.09-.29.06-.27-.13l0-.15c-.09,0-.14.15-.21.22s0,0,0-.07c0,.22-.21,0-.31.15-.18-.08-.46,0-.54-.15a.56.56,0,0,1-.42.1s.07,0,.08-.08-.12,0-.21,0-.2-.13-.31-.21-.09.19-.1.26c-.13-.22-.39.14-.55-.06,0,0,.2-.11.09-.16-.13-.22-.25.16-.46.06l0,.18c-.09-.11-.3.11-.28-.08-.07.07-.24-.06-.22.12-.33-.15-.81.09-1-.23,0,0-.17,0-.14.09s.11-.07.14,0-.05.05-.06.08-.19-.05-.09-.2c-.23-.11-.24.3-.53.23,0-.07,0-.1-.09-.09l-.16.13c-.19,0-.11-.17-.11-.29s-.23,0-.27.11l-.12-.16c.09.11-.08.08-.13.11l0,0c0-.05-.14,0-.2,0s.13.11.2.13-.13,0-.2.11c0-.12-.17-.09-.25-.1s-.1.11-.13.11-.15,0-.08-.1.07.06.12,0-.05-.16-.18-.08,0,.24-.16.16c0,0,.06-.08.09-.12l-.17-.06v.11s0,0,0-.05-.26,0-.3.17-.18-.08-.26-.09h0a.27.27,0,0,0-.32.05v0a.35.35,0,0,0-.25.07c-.14-.08,0-.42-.2-.28s-.22.2-.16.28c-.25-.08-.54.11-.77-.07,0,0,0,.07-.09.1-.37,0-.78.13-1.07-.09.11,0,0-.11,0-.17-.09.1-.11-.1-.14.07s0,.15.1.19a1,1,0,0,1-.68,0c.06,0,0,.08,0,.11,0-.16-.15-.18-.27-.13l0,.1-.08-.1s-.05.2-.17.11a.22.22,0,0,0,0-.1c-.13.08-.31.22-.44.13L28,10.56c-.06,0-.16.1-.05.14-.23-.09-.39-.1-.46-.22a2.31,2.31,0,0,1-1.46.29V10.7c-.13-.07-.07.13-.15.08s-.1-.15,0-.24c-.18-.08-.23.13-.35.16s.09-.06.07.06-.25-.07-.28.07c0-.06,0-.16,0-.22l-.11.07c-.13-.17.31-.3.17-.51l-.1,0c-.1-.15.27-.17,0-.22s-.21.28-.11.35c-.23,0-.11.35-.35.33-.07-.09.2,0,.15-.14s-.23.07-.34,0c.12.05,0,.2-.06.23s.08-.14-.1-.15-.19.15-.05.21c-.06.19-.19-.05-.28.09-.06-.13.18-.31,0-.38,0,.13-.24.18-.14.37a.14.14,0,0,1,0-.22c-.11-.08-.27.24-.3,0l0,.13s-.08-.08-.14-.15-.31.18-.3,0c0,0-.25,0-.17.15s.16-.1.23.09c-.1-.15-.2,0-.28.07v-.08s-.16,0-.19.1a.07.07,0,0,0,0-.12l0,.12c-.19.06,0-.21-.23-.17l.14-.09s-.09-.09-.18-.05-.1.24-.13.32,0-.12-.15,0l.14-.13s-.09-.18-.23-.17-.23.19-.09.25c-.07,0-.17-.06-.11-.14-.16,0,0,.11-.12.18s-.23-.17-.34-.28l.14-.18h-.1c.12-.14-.06-.11,0-.26s-.14,0-.21.07c.19.24-.21.33-.16.55-.26.06-.16-.54-.44-.19,0,.06-.08.23.08.16-.16,0-.11.22-.3.13.14-.09-.15-.22.05-.36,0,.07.11.06.15,0s0-.22-.15-.22-.24,0-.22.14.16,0,.09.11-.24-.15-.32.08c.13,0,.16.11.16.2l-.15.05,0-.08c-.24-.06-.07.15-.3.13l-.11-.17c.06-.14.34.06.3-.17-.15,0-.2.11-.34,0l.11,0c-.05,0-.11-.32-.32-.14s0,.08,0,.17c-.24,0-.31.12-.47.13,0-.17-.28,0-.1-.19a.4.4,0,0,0,.51-.07c-.09-.2.19,0,.24-.18-.19,0-.18-.2-.22-.33s-.11,0-.14.07,0,.12.05.25a.65.65,0,0,0-.54.15.11.11,0,0,1,0-.19,2.75,2.75,0,0,1-.78,0c.16.2-.27,0-.16.21s.24.19.17.28,0-.09,0-.13c-.1.11-.16-.17-.26,0,.24-.06,0-.24.09-.4-.17.09,0-.11-.16-.11a2.11,2.11,0,0,1-.56.19c-.24-.15-.6,0-.81,0s0-.26-.16-.29.1.19-.1.11l0,0c-.06,0-.38-.12-.44.13l.06-.19s-.07,0-.11,0,0-.12,0-.16c-.13-.13-.27,0-.41,0l.09.11c-.24.09-.4,0-.63,0V10l-.14.07A.09.09,0,0,0,14.3,10l.36-.27c.1.07-.11.13,0,.24s.27.07.3,0-.09,0-.15.05c0-.15.1-.15.16-.25s-.1,0-.11,0a.42.42,0,0,1,.31-.09c-.09.06.05.1,0,.14,0-.14.15-.18.32-.14s.33-.1.53-.06a.73.73,0,0,1-.31.3c.13.07.14,0,.27.07.06-.1.1-.26.27-.32v.1c.15-.05.15-.2.34-.17a8.69,8.69,0,0,0,.91.06v.1c.14-.22.46-.08.65-.18.32.1.69-.1.85.08a7.63,7.63,0,0,1,1.62-.12l-.1.15c.1-.11.07.08.17.06-.12-.12.14-.15.21-.24a1.07,1.07,0,0,0,.82-.11v.1c.23-.19.51,0,.79,0,0,0,.09.14.17.13.16-.16.24-.15.47-.25a2,2,0,0,1,.61.1,13.29,13.29,0,0,1,1.92-.22l0,.12c.63-.25,1.41,0,2-.15l-.05.2c.17.06.39-.05.34-.2.17.06.42-.1.53.07s.21-.09.36-.12a1.9,1.9,0,0,0,.8,0h-.08s0,.13,0,.14.45.05.33-.19c.35.14.82-.11,1.16.08,0-.07.06-.08.09-.12.31,0,.63.13.87,0,0,0-.08.11,0,.12s0-.09.09-.12c.5-.12,1,.13,1.46.1a18.43,18.43,0,0,1,2.41-.09v0c.26-.19.6.19.81-.09.06,0,.23,0,.19.12.21-.13.57.12.87,0,0,0,0,0-.07,0,.3.11.56,0,.88.06,0,0-.09,0-.1.09s.29-.21.36,0c.07,0,0-.12,0-.11a10.82,10.82,0,0,0,2.15-.11c.52.14,0,.4.44.22,0,0,0-.09,0,0,.16-.07.25.26.35.14,0-.14.07-.08.08-.17.32.09.38.22.63.11l0,.08c.29-.21.63-.1.88-.35,1.61,0,3.15-.18,4.73-.21s3.07-.06,4.65.07a.83.83,0,0,0,.8.11s0,0,0,.07c0-.16.29,0,.32-.17.58,0,1.12,0,1.72,0-.09,0-.14.15,0,.14l.12-.1,0,0c.08,0,.16-.11.08-.16,1.51-.14,3,.18,4.48.15a6.35,6.35,0,0,0,1.27,0c1.17.29,2.18.6,3.39.8A1,1,0,0,1,64.3,10.18Z"/><path class="cls-1" d="M14.15,9.66c0,.08.17.13.07.24C14.2,9.82,14.13,9.74,14.15,9.66Z"/><path class="cls-1" d="M17.65,10.5s0,0,.06,0-.08.08-.12,0S17.63,10.54,17.65,10.5Z"/><path class="cls-1" d="M18.55,10.55c0,.07-.21.13-.32.14Z"/><path class="cls-1" d="M19.38,10.85c.07.06.05.1,0,.09S19.36,10.89,19.38,10.85Z"/><path class="cls-1" d="M19.44,10.69a.17.17,0,0,1,.14.08C19.58,10.71,19.42,10.81,19.44,10.69Z"/><path class="cls-1" d="M21.25,10.9s.14-.07.18,0S21.22,11,21.25,10.9Z"/><path class="cls-1" d="M22.09,10.79s0,0,.07,0,0,.09,0,.09Z"/><polygon class="cls-1" points="37.43 10.49 37.34 10.53 37.35 10.46 37.43 10.49"/><path class="cls-1" d="M44.14,10.49c.09,0,.06.07.08.08S44.25,10.48,44.14,10.49Z"/><polygon class="cls-1" points="47.77 10.13 47.74 10.13 47.75 9.98 47.77 10.13"/><path class="cls-1" d="M27.08,3c-.12,0,0,.14-.09,0S27.06,3,27.08,3Z"/><path class="cls-1" d="M26.88,17.28c.3-.42.83-.12,1.16-.45,0,0,0,.21.13.13a1.63,1.63,0,0,1,1.41-.34v.07c.1,0,.13-.21.23-.22s0,.06,0,.1c0-.12.14-.12.14-.21s.09.12.15.14v-.14c0-.35.34-.13.45-.37,0,0,0,.06,0,.08a3.93,3.93,0,0,1,.86-.71.34.34,0,0,0,.09.17.25.25,0,0,1,.09-.29c.11.1.08-.2.21-.18v0c0-.17.15,0,.11-.18l.1.07c-.08-.19.16,0,.16-.1l0,0c0-.08.11,0,.14-.07l0,0c.09-.12.22-.07.13-.2.11.08-.08.12.08.24a4.86,4.86,0,0,1,1.1-.9c.08,0,.12,0,.16.06s.13-.13.11-.22.07,0,.1,0,0-.2.09-.19a.17.17,0,0,0,.06.15c0-.15.09-.19.14-.28a.13.13,0,0,0,0,.1c0-.18.17-.09.19-.21l0,.09c.18,0-.08-.18.06-.2s0,.06,0,.1c0-.21.18-.27.24-.39a.09.09,0,0,0,0,0c.09-.09.23-.13.3-.27s.12.19.21.08c-.11-.15.14-.2,0-.32.11,0,.3-.1.33-.19,0,.09.18.15.11.22l.12,0c0,.07-.08,0,0,.09s.11-.18.16-.18-.05-.37.05-.47c0,.1.15.14.13.2l0-.41s.09.11.12,0,0-.08,0-.13.14-.15.26,0,0,.08,0,.1,0-.11.11-.16l0,0c.06,0,.1-.16,0-.21s.08.08,0,.07a.24.24,0,0,1,.12-.25s0,.08,0,.13a.89.89,0,0,1,.18-.42c0-.07,0,.16,0,.13.21,0,.2-.34.42-.27,0,0-.08-.1-.06-.08s.14.07.16,0,0-.06.08-.11,0,0,0,.06.27-.38.37-.32-.08-.16-.07-.16l.08.08c.07,0,.05,0,.14,0-.07-.12-.08.18-.1.07.09.06-.06-.17,0-.06s0-.12.09-.08c0,0,.12.11.15.08s0,0,0-.09l0,0c-.13-.05.07,0-.1-.07.12,0,0-.06.24,0l.19.06s-.16-.08-.24-.11l.1,0c-.32-.07.09,0-.15-.08a2.12,2.12,0,0,1,.39,0c-.07,0-.18,0-.13-.05h.2c.13,0,0,0-.09,0a1.16,1.16,0,0,0,.31-.07,3.15,3.15,0,0,0-.51,0c.35-.06-.33,0,0-.09a.85.85,0,0,0,.28,0c.29-.09-.33,0-.24-.06l-.24.08c.13-.06-.21,0,0-.07-.1,0,0-.06-.2,0,.07-.13-.23,0-.06-.29,0,0-.05,0-.1,0s.08,0,0,0-.05,0-.07.05,0-.07.1-.17-.21.23-.33.08c0-.06,0-.09,0-.11l-.14.06c-.08-.08,0-.18.08-.29s-.12-.05-.19,0V9c0,.13-.08,0-.12.06h0c0-.05-.06-.06-.1-.06a.18.18,0,0,0,0,.17c-.05,0-.09,0-.15,0s0-.12-.08-.16-.11.07-.12.06-.07-.05,0-.11,0,.07.06,0,0-.15-.06-.12-.1.22-.16.1.07-.05.11-.08L37,8.78l-.06.1s0,0,0-.05-.15,0-.23.06-.06-.12-.09-.15h0c0-.09-.11-.09-.19,0v0a.15.15,0,0,0-.16,0c0-.11.18-.38,0-.3s-.21.12-.21.2c-.09-.14-.33-.06-.36-.28,0,0,0,.06-.09.06s-.46-.1-.51-.38c.08,0,.06-.1.09-.15s0-.12-.1,0S35,8,35.07,8c-.14,0-.31-.11-.33-.23,0,.06,0,.07-.07.08s0-.2-.08-.19l-.06.08V7.67s-.12.17-.14,0a.34.34,0,0,0,0-.1c-.1,0-.26.1-.29,0V7.45s-.13,0-.1.11c-.08-.14-.15-.19-.13-.32A.92.92,0,0,1,33,7.08l0-.06c0-.1-.09.09-.12,0s0-.16.11-.21-.18,0-.26,0,.08,0,0,.07-.09-.14-.18,0a.41.41,0,0,1,.11-.19l-.09,0c0-.19.3-.18.33-.4h-.06c0-.16.22-.08.11-.19s-.24.19-.22.27c-.14,0-.22.27-.34.19s.11,0,.14-.08-.15,0-.19-.07-.09.18-.14.18.11-.1,0-.16-.17.07-.12.17c-.12.15-.07-.1-.19,0,0-.13.24-.22.17-.33,0,.12-.21.09-.25.28a.21.21,0,0,1,.09-.2c0-.1-.25.13-.15-.1l-.08.11s0-.09,0-.17-.25.07-.15-.1c0,0-.14-.06-.16.08s.13,0,.08.14c0-.16-.11,0-.18,0l0-.07s-.09,0-.14,0a.1.1,0,0,0,0-.11l-.08.09c-.13,0,.07-.19,0-.22l.12,0s0-.11-.07-.1L31,6.2c-.08,0,0-.12-.07-.05l.13-.07s0-.18,0-.22-.21.1-.16.2a.1.1,0,0,1,0-.16c-.1,0,0,.11-.15.13s0-.22,0-.34l.16-.12,0,0c.13-.09,0-.11.13-.23s-.09,0-.14,0c0,.26-.27.23-.34.44-.16,0,.17-.52-.13-.28,0,.06-.15.18,0,.16-.07-.06-.16.17-.21,0,.11,0,0-.24.19-.3,0,.06,0,.08.06.07s.11-.19,0-.24-.14,0-.18.07.09,0,0,.13-.05-.19-.2,0c.07,0,0,.14,0,.22h-.1l.05-.07c-.09-.12-.1.12-.21,0l0-.18c.09-.11.14.15.23-.07-.07,0-.15,0-.2,0h.07s.09-.31-.1-.21-.05.07-.09.14-.21,0-.3,0c.09-.14-.13-.09,0-.2,0,.11.18.19.29.07s.08.08.2-.09c-.1-.06,0-.23,0-.36s-.08,0-.1,0,0,.12-.08.24a.28.28,0,0,0-.35,0c0-.07.05-.18.1-.17a1.05,1.05,0,0,1-.39-.22c0,.22-.16,0-.17.16a.25.25,0,0,1,0,.29s0-.08,0-.13,0-.2-.13-.06c.15,0,.12-.21.21-.34-.12,0,0-.1,0-.14a1,1,0,0,1-.37,0c-.07-.19-.32-.13-.43-.17s.07-.25,0-.3,0,.2-.09.08l0,0s-.17-.19-.29,0l.1-.17s0,0-.07,0,0-.12.06-.15-.16,0-.23-.05V3.7c-.16,0-.21-.1-.35-.1l0-.1-.1,0c.05-.1,0-.19-.07-.11l.28-.2c0,.08-.1.11-.1.22s.13.11.18,0-.05,0-.1,0c0-.15.1-.12.17-.21s0-.06-.07,0a.19.19,0,0,1,.2,0c-.07,0,0,.1,0,.14,0-.13.14-.14.22-.07s.22,0,.32.05a.69.69,0,0,1-.28.22c0,.09.08,0,.12.12.07-.08.15-.22.26-.25l0,.1c.1,0,.16-.16.25-.09a3.88,3.88,0,0,0,.48.27l0,.1c.16-.17.28,0,.42,0,.13.17.41.1.42.3a2.73,2.73,0,0,1,.91.34l-.12.1c.1-.07,0,.09.06.1s.15-.1.23-.16c.08.17.32.15.48.13l0,.09c.21-.1.27.12.41.23s0,.14,0,.16S32,5,32.2,5a.77.77,0,0,1,.26.26c.43,0,.69.29,1.1.35l0,.12c.45,0,.74.38,1.08.42l-.12.16c.06.1.22.06.27-.08.06.1.27,0,.24.21s.15,0,.24,0a.67.67,0,0,0,.4.25l0,0s-.08.1,0,.14.21.18.26-.07c.11.22.47.13.56.39,0-.07.07-.05.11-.08s.26.29.44.26c0,0-.09.08,0,.12s0-.08.11-.08c.32,0,.46.4.71.5a2.82,2.82,0,0,1,.67.27l.91.5,0,0c.42,0,.33.4.83.36,0,.05.19.13,0,.15.37.05.31.31.84.41l-.11,0c.06.16.6.27.64.43a.92.92,0,0,0-.24,0s0,0,.08.06.1.09-.26.1c-.05,0,.2,0,.22,0a9.36,9.36,0,0,0-1.85,1.09c-.57.17-.35-.26-.55.07-.06,0,0,.08,0,0-.09.13-.36-.1-.35,0s0,.09.05.17c-.2,0-.3-.07-.37.1l0-.07c0,.27-.25.28-.23.57-.74.55-1.38,1.19-2.11,1.76a20.47,20.47,0,0,1-2.31,1.55c-.3,0-.31,0-.47.17,0,0,0,0,0-.06.08.14-.14.11-.07.25-.32.16-.58.37-.9.56,0,0,0-.18-.05-.13v.13l0,0s0,.14,0,.16a10,10,0,0,1-2.6,1,2.38,2.38,0,0,0-.74.26,6.51,6.51,0,0,0-2.11.13S26.61,17.41,26.88,17.28Z"/><path class="cls-1" d="M27.22,3.06c0,.09.06.15,0,.24A1.31,1.31,0,0,1,27.22,3.06Z"/><path class="cls-1" d="M28.84,4.56s0,0,0,.06-.07,0-.07,0S28.82,4.59,28.84,4.56Z"/><path class="cls-1" d="M29.28,4.82c0,.06-.16.06-.22,0Z"/><path class="cls-1" d="M29.58,5.31c0,.07,0,.1-.06.07S29.55,5.34,29.58,5.31Z"/><path class="cls-1" d="M29.68,5.18s0,.06,0,.11S29.61,5.28,29.68,5.18Z"/><path class="cls-1" d="M30.51,5.85s.1,0,.08.06S30.44,5.93,30.51,5.85Z"/><path class="cls-1" d="M31,6s0,0,0,0,0,.08-.07.07Z"/><polygon class="cls-1" points="38.48 9.75 38.41 9.75 38.52 9.73 38.48 9.75"/><path class="cls-1" d="M36.87,11.12c0,.07-.07,0-.08,0S36.82,11.16,36.87,11.12Z"/><polygon class="cls-1" points="35.34 12.66 35.35 12.65 35.43 12.77 35.34 12.66"/><path class="cls-1" d="M41.46.88c-.12,0,0,.14-.09,0S41.44.82,41.46.88Z"/><path class="cls-1" d="M41.51,19.18c.1-.51.7-.47.87-.91,0,0,.12.17.17.07.11-.47.67-.72,1.17-.86l0,.06c.09,0,0-.24.13-.29s0,.06.07.09.09-.15.06-.24.12.08.19.09l0-.14c-.1-.34.29-.22.33-.48,0,0,0,.06,0,.07a3.3,3.3,0,0,1,.67-.9.33.33,0,0,0,.12.14.25.25,0,0,1,0-.3c.13.08,0-.21.18-.23v0c0-.17.15,0,.08-.2l.12.05c-.11-.18.16,0,.15-.13l0,0c0-.08.11,0,.13-.09h0c.07-.14.21-.11.1-.22.12.06-.07.14.12.22a4.29,4.29,0,0,1,1-1c.08,0,.12,0,.17,0s.11-.14.09-.23.08,0,.1,0,0-.19.07-.2a.17.17,0,0,0,.07.14c0-.15.07-.2.12-.3s0,.06,0,.09c0-.18.16-.1.17-.23l0,.09c.18,0-.1-.17,0-.21s0,.06,0,.09c0-.2.16-.29.21-.41l0,0c.08-.1.22-.15.28-.3s.14.18.22.06c-.13-.14.12-.21-.08-.32.11-.05.29-.12.31-.22,0,.09.19.13.13.21l.13,0c0,.06-.07,0,0,.09s.09-.19.14-.19-.08-.36,0-.47c0,.1.16.13.15.19l-.07-.4s.1.11.13,0,0-.08,0-.12.13-.17.26,0,0,.08,0,.1,0-.11.1-.17l0,0a.12.12,0,0,0,0-.21s.08.08,0,.07a.24.24,0,0,1,.11-.26s0,.08,0,.13a.87.87,0,0,1,.17-.44c0-.07.05.16,0,.13.21,0,.2-.36.43-.29,0,0-.08-.09-.06-.08s.15.06.15,0,0,0,0-.08,0,0,0,0,0-.23.23-.22c-.05,0-.16-.11-.14-.11l.13.05c.1,0,0,0,.18,0-.13-.08,0,.14-.1.07.14,0-.14-.12,0,0s-.11-.09.09-.07a.49.49,0,0,0,.22,0s-.06,0-.07-.06l0,0c-.18,0,.08,0-.15,0,.16,0,0,0,.3,0l.25,0a1.56,1.56,0,0,0-.33-.06h.14c-.43,0,.1,0-.22,0l.23,0,.24,0c-.09,0-.32,0-.25,0h.2c.12,0,0,0-.13,0a1.85,1.85,0,0,0,.35-.07,5.09,5.09,0,0,0-.57,0c.39-.06-.37,0,0-.07a1.34,1.34,0,0,0,.32,0c.33-.09-.37,0-.26,0l-.27.07c.15-.05-.23,0,0-.06-.11,0,0-.06-.22,0,.09-.12-.26,0,0-.26,0,0-.05,0-.12,0s.09,0,0,0-.06,0-.08,0,0-.06.13-.16c0-.13-.28.19-.3.11s.05-.09,0-.09l-.15.06c-.09-.08,0-.18.08-.29s-.13-.05-.2,0V9c0,.13-.08,0-.12.05h0c0-.05-.06-.06-.1-.06a.18.18,0,0,0,0,.18c-.06,0-.09,0-.16,0s0-.13-.08-.16-.11.06-.13,0S50,9,50,9s0,.08.06,0,.06-.15-.05-.13-.12.21-.17.08.07,0,.12-.07l-.05-.11-.07.09s0,0,0,0-.15-.06-.25,0-.05-.13-.08-.17h0c0-.09-.1-.1-.19-.08l0,0a.18.18,0,0,0-.17,0c0-.12.23-.35.07-.3s-.23.07-.25.15c-.07-.16-.33-.14-.32-.36,0,0-.05.05-.1,0-.14-.18-.44-.2-.42-.48.08,0,.08-.08.12-.13s0-.12-.11,0-.1.11-.08.18c-.13,0-.28-.17-.28-.29,0,.06,0,.06-.09.07.11-.12.06-.2,0-.2l-.07.07,0-.11s-.16.14-.15,0a.33.33,0,0,0,.05-.09c-.11,0-.28,0-.29-.07l0-.15s-.14,0-.12.09c0-.16-.11-.22-.06-.35a.91.91,0,0,1-.85-.36l.05,0c0-.1-.11.07-.12,0s.06-.15.16-.18-.19,0-.26,0,.08,0,0,.07S46.09,6,46,6.06c0-.06.11-.13.16-.16H46c.05-.18.34-.1.42-.31l-.06,0c.06-.15.23,0,.16-.16s-.28.13-.28.22-.28.21-.38.11.1.06.16,0-.15,0-.17-.12c0,.09-.13.16-.18.15s.13-.07.06-.15-.19,0-.16.13c-.16.11,0-.11-.19,0,.06-.12.29-.15.25-.28-.07.11-.23,0-.31.21,0-.06.06-.14.14-.17s-.28.06-.12-.14l-.11.08s0-.09,0-.16-.26,0-.12-.14c0,0-.12-.09-.18,0s.14,0,0,.16c.06-.15-.1-.07-.17-.06l0-.06s-.08-.05-.15,0A.1.1,0,0,0,44.84,5l-.1.06c-.13,0,.12-.17,0-.22h.13s0-.1,0-.11l-.28.18c-.08,0,.06-.11-.06-.07l.15,0s.08-.16,0-.22-.24,0-.21.14a.09.09,0,0,1,0-.15c-.1,0-.07.09-.18.08s0-.22,0-.34l.19-.07,0,0c.15,0,.05-.1.19-.18s-.08,0-.14,0c-.09.25-.32.14-.46.32-.15-.07.31-.45,0-.32,0,.06-.2.12-.08.15-.05-.09-.2.11-.22,0s.1-.22.27-.23c-.06,0,0,.09,0,.09s.16-.15.09-.22-.12-.08-.19,0,.07.06,0,.12,0-.2-.19-.08c.07,0,0,.15-.08.21l-.1,0,.07,0c-.06-.14-.14.08-.22,0l.07-.16c.12-.08.09.18.24,0-.06-.07-.16,0-.18-.11h.08s.18-.27,0-.23-.07,0-.13.11-.21,0-.28-.09c.13-.11-.1-.12.09-.18,0,.1.11.23.26.15s.06.1.22,0c-.08-.08.07-.22.14-.33s-.08,0-.1,0-.06.11-.15.2a.28.28,0,0,0-.33-.11c0-.07.1-.15.15-.13a1,1,0,0,1-.32-.31c-.06.21-.15-.07-.21.1a.26.26,0,0,1-.11.27s.06-.06.07-.11,0-.19-.11-.1c.14,0,.18-.17.3-.27-.13,0,.08-.08,0-.14a1.06,1.06,0,0,1-.37-.06c0-.2-.27-.21-.36-.27s.13-.22.09-.29-.06.19-.11.06l0,0c-.05,0-.12-.22-.28,0l.13-.15s-.05,0-.08,0,0-.12.09-.13-.15-.07-.22-.1v.12c-.16,0-.19-.13-.33-.15l.05-.1-.1,0c.06-.09,0-.18-.05-.12l.31-.16c0,.08-.12.09-.13.21s.11.12.18,0-.05,0-.1,0c.05-.15.12-.11.2-.18s0-.07-.07,0a.2.2,0,0,1,.21,0c-.08,0,0,.1-.06.13s.17-.11.24,0,.23,0,.31.12a.74.74,0,0,1-.32.15c0,.1.07,0,.1.14.09-.07.19-.18.32-.18l-.05.09c.1,0,.19-.11.27,0s.29.29.4.39l-.06.08c.21-.11.27.12.41.12.08.2.37.21.32.41a2.61,2.61,0,0,1,.77.6l-.15.06c.12,0,0,.09,0,.12,0-.13.17,0,.26-.08,0,.19.25.24.42.26l-.07.08c.23,0,.24.18.34.32s-.06.13,0,.16.21,0,.38,0a.76.76,0,0,1,.19.31c.43.08.61.44,1,.59l-.06.11c.44.06.63.54,1,.64l-.16.13c0,.11.21.11.28,0,0,.11.25.09.19.26s.16,0,.24,0A.68.68,0,0,0,49,6.5l0,0s-.1.08-.08.13.17.22.27,0c.06.24.44.23.47.5,0-.06.08,0,.12-.06s.18.32.35.32c0,0-.1.06-.05.11s.05-.07.12-.07c.28.06.36.42.59.53a3.3,3.3,0,0,1,.62.26l.51.25c.19.09.39.17.59.25l-.06,0c.5,0,.36.34,1,.26,0,0,.23.1,0,.13.48,0,.37.26,1,.31l-.14,0c.07.14.72.2.79.32a2.38,2.38,0,0,0-.33,0c-.17,0,.91.07.23.11a1.09,1.09,0,0,0,.34,0,.28.28,0,0,0,.07.09,21,21,0,0,0-2.1.82c-.83.15-.61-.18-.82.07-.09,0,.08.06,0,0s-.5,0-.47.07,0,.08.1.14c-.38.09-.48,0-.61.22l0-.07c-.1.32-.26.29-.25.59-.7.56-1.27,1.25-1.95,1.89S48,14.9,47.23,15.42c-.3,0-.31,0-.43.23,0,0,0,0,0-.06s-.12.12,0,.26c-.28.21-.49.45-.75.69,0-.05,0-.17-.08-.12l0,.12,0,0s0,.14.07.15a22.72,22.72,0,0,1-2.09,1.65,2,2,0,0,0-.56.51,6.1,6.1,0,0,0-1.86,1A.83.83,0,0,1,41.51,19.18Z"/><path class="cls-1" d="M41.6.92c0,.09.05.16,0,.23A1.33,1.33,0,0,1,41.6.92Z"/><path class="cls-1" d="M42.88,2.71s0,0,0,.06-.08,0-.07,0S42.85,2.73,42.88,2.71Z"/><path class="cls-1" d="M43.23,3.08c-.06,0-.17,0-.23,0Z"/><path class="cls-1" d="M43.36,3.63c0,.07,0,.09-.08,0S43.33,3.65,43.36,3.63Z"/><path class="cls-1" d="M43.5,3.54s0,.07,0,.11S43.41,3.61,43.5,3.54Z"/><path class="cls-1" d="M44.11,4.44s.11,0,.07.09S44,4.5,44.11,4.44Z"/><path class="cls-1" d="M44.56,4.72s0,0,0,0-.06.06-.09,0Z"/><polygon class="cls-1" points="51.44 9.73 51.36 9.73 51.48 9.71 51.44 9.73"/><path class="cls-1" d="M50.17,10.84c0,.07-.07,0-.09,0S50.12,10.89,50.17,10.84Z"/><polygon class="cls-1" points="48.73 12.52 48.74 12.51 48.84 12.63 48.73 12.52"/><text class="cls-2" transform="translate(0 55.65)">DIBUJO</text></g></svg>