<svg xmlns="http://www.w3.org/2000/svg" viewBox="0 0 177.95 28.59"><title>web movil_recursos_</title><g id="Capa_1" data-name="Capa 1"><path d="M168.38,12.71c.07-.67.55-2.16-.37-2.31a24.91,24.91,0,0,0-4-.07c-.42,0-1.08.13-1.41-.19a.61.61,0,0,1,.2-1,11.61,11.61,0,0,1,2.9-.94c1.12-.25,2.22-.5,3.34-.73.81-.17,2.38-.82,2.89.16s.15,2.52,0,3.55c-.09.55-.26.88.39.77s1.38-.28,2.08-.38c.9-.13,2.54-.53,3.27.2.52.52.1.86-.21,1.36a2.19,2.19,0,0,1-1,1.06,18.91,18.91,0,0,1-3.25.75,8.2,8.2,0,0,0-1.59.15c-.32.14-.29.45-.35.79-.1.6-.21,1.19-.28,1.79s-.14.85.61,1a21.72,21.72,0,0,0,3.62.35,3.31,3.31,0,0,1,1.63.19.79.79,0,0,1,0,1.14,1.93,1.93,0,0,1-1.23.46c-.61.08-1.21.19-1.81.31a23.56,23.56,0,0,1-4.09.65c-1,0-2.34.23-3.05-.6a2.26,2.26,0,0,1-.41-1.83,31,31,0,0,1,1.05-3.85c-.75,0-5,.22-4.4-1.38.3-.81,1.67-.7,2.34-.84C166.34,13.07,167.34,12.83,168.38,12.71Z"/><path d="M127.16,16.35c-.52.08-1,.09-1.54.18a4.62,4.62,0,0,0-1,.13c-.29.14-.35.46-.47.74-.42,1-.66,2.25-1.45,3-.56.51-2.64.37-2.77-.52a3.57,3.57,0,0,1,.56-1.77,11.34,11.34,0,0,1,.81-1.72c-.53-.17-1.4-.26-1.53-.91s.41-.66.92-.72,1.27-.09,1.53-.66.56-1.18.87-1.78A45.92,45.92,0,0,1,125.41,8c.3-.45.69-1.37,1.23-1.55s1.07.25,1.57.58,1,.62,1.25,1.31a19.07,19.07,0,0,1,.54,2.37c.15.75.29,1.51.42,2.26a3.11,3.11,0,0,0,.09.49c.13.36,0,.17.29.28s.82,0,1.15.23a.84.84,0,0,1,0,1.41c-.61.4-1.09.18-1,1s.21,1.63.36,2.43c.09.47.53,1.72.23,2.16a2.29,2.29,0,0,1-.86.47,3.06,3.06,0,0,1-1.17.05c-.7,0-1.22.11-1.58-.55a1.86,1.86,0,0,1-.11-.94,11.92,11.92,0,0,0-.18-1.28A16.49,16.49,0,0,0,127.16,16.35Zm-.37-2.3-.24-1.93-.49.91a3.2,3.2,0,0,0-.43.81C125.57,14.39,126.41,14.1,126.79,14.05Z"/><path d="M97.49,16.24a4.91,4.91,0,0,0,.24-1.53c.06-.67.13-1.33.18-2s.1-1.16.14-1.74a7.37,7.37,0,0,1,.13-1.86c.3-.83,1.89-1.25,2.67-1.26.41,0,.67.12.73.54s0,1.12,0,1.64c.09,2.5-.13,5,0,7.51.06,1,.36,2.54-.34,3.33a2,2,0,0,1-1.16.59,6.63,6.63,0,0,1-1.77.21c-1.16-.12-1.94-1.42-2.68-2.21a18.62,18.62,0,0,0-1.49-1.52,4.19,4.19,0,0,0-1.64-1.07c0,.71.43,2.18-.13,2.72a3.52,3.52,0,0,1-2.22.6c-1-.06-.84-1.49-.91-2.21-.1-1.05-.19-2.15-.19-3.21a2.47,2.47,0,0,1,.3-1.36,2.36,2.36,0,0,1,1.13-.62,2.29,2.29,0,0,1,1.3-.32,4.91,4.91,0,0,1,1.25.7c.83.51,1.58,1.09,2.36,1.65.31.22.66.31,1,.55S97.12,16,97.49,16.24Z"/><path d="M73.35,22.7c-1-.1-2,0-3.05-.05a6.07,6.07,0,0,1-2.9-.84,5.79,5.79,0,0,1-2.9-4.92A6.51,6.51,0,0,1,67.56,12a6.67,6.67,0,0,1,2.75-1.11,3.4,3.4,0,0,1,1.35,0,3.25,3.25,0,0,1,1,.76c.42.41,1.63,1.43,1.14,2.09s-1.76.41-2.32.5a6.13,6.13,0,0,0-2.65,1.44,2.28,2.28,0,0,0-1,2.13c.23,2.12,4,1.39,5.33,1,.52-.14,1-.31,1.54-.48a5.8,5.8,0,0,1,1.58-.44c1,0,.76,1.59.64,2.27-.2,1.21-.26,2.41-.35,3.63,0,.58-.19,1.14-.23,1.71s0,1.22-.35,1.62c-.59.64-2.26-1-2.68-1.47a1.32,1.32,0,0,1-.29-1.22C73.17,23.89,73.22,23.28,73.35,22.7Z"/><path d="M152,12.83c1.14-.12,2.28-.24,3.42-.35.75-.07,2.3-.49,2.86.21.74.93-.48,1.33-1.18,1.48-1.18.24-2.34.54-3.52.79-.3.06-1,0-1.16.38s.18,1.16.29,1.48c.38,1.09,1.19,1.33,2.23,1.54s2.23-.41,3.34-.15a1.06,1.06,0,0,1,.76.85,1,1,0,0,1-.47,1.06,5.55,5.55,0,0,1-2.8.93,8.49,8.49,0,0,1-3.22,0,4.05,4.05,0,0,1-2.62-1.49,6.43,6.43,0,0,1-1.17-2.87,55,55,0,0,1-.45-6.64,3.15,3.15,0,0,1,.07-1.52c.24-.39.79-.32,1.18-.34,1.2-.06,2.39-.13,3.59-.17A26.68,26.68,0,0,1,157,7.82c.52.06,1.06.18,1.08.76a.94.94,0,0,1-.71,1,24.62,24.62,0,0,1-4,.76c-.43.07-1.33,0-1.5.52a3.09,3.09,0,0,0,.07.92C152,12.15,152,12.49,152,12.83Z"/><path d="M11,14a54.36,54.36,0,0,0-.06,5.6,11,11,0,0,1-.81,4.74,7.76,7.76,0,0,1-3.36,3.13,6.61,6.61,0,0,1-4.68,1c-.62-.14-1.58-.16-2-.75s1-1,1.45-1.13a7.47,7.47,0,0,0,2-1.11,10.24,10.24,0,0,0,2-1.74c1.06-1.4,1-3.38,1-5s-.15-3.6-.21-5.41c0-.55,0-1.1,0-1.65,0-.27-.09-1,.11-1.27s.66-.17,1-.22A7.72,7.72,0,0,1,8.84,10a3.79,3.79,0,0,1,1.2.23c.48.2.48.42.59.92A25.9,25.9,0,0,1,11,14Z"/><path d="M20.07,17.18c.53.93.91,1.82,2,2.14A9.27,9.27,0,0,0,26,19.22c.48-.08,2.52-.46,2.12.7-.34,1-2.18,1.08-3,1.27-2.1.48-5.06,1.43-6.94-.1s-2.33-4-2.67-6.19c-.09-.61-.1-1.22-.16-1.83s-.3-1.12,0-1.69.55-.31,1.05-.35,1.13-.31,1.7-.36c2.4-.2,4.79-.88,7.21-1.21a4.25,4.25,0,0,1,1.59-.17c.36.12.65.57.38.9s-1.25.4-1.67.5c-.72.17-1.41.4-2.12.6s-1.13.3-1.7.47l-.8.25c-.24.08-1,.2-1.1.39s-.11,1.2-.12,1.56c0,.69-.07,1,.68,1,1.44-.09,2.91-.32,4.34-.49.62-.07,1.26-.24,1.88-.26s1.29.36.89,1c-.27.41-1.07.43-1.5.53-.61.14-1.22.28-1.81.47C22.83,16.6,21.43,16.81,20.07,17.18Z"/><path d="M108.49,17.42a10.72,10.72,0,0,1-2.15-.15c-.33-.07-1.07-.1-1.15-.54s.49-1,.85-1.13a5.27,5.27,0,0,1,1.6-.07c.31,0,.61-.12.92-.13.16,0,.36.08.52,0,.36-.24.5-1.16.65-1.54s.53-.88,0-1.11a10.33,10.33,0,0,0-2-.16c-.35-.06-1-.15-1.18-.52s.18-.81.53-1a6.79,6.79,0,0,1,1.72-.31c.55-.1,1.09-.18,1.65-.23a2.8,2.8,0,0,1,2.76,1c.73,1.06,0,2.4-.38,3.46.94.15,2.1-.8,2.93-.06.3.27.68.8.56,1.23-.17.58-.88.57-1.34.73a4.67,4.67,0,0,1-1.2.28c-.43,0-1.41-.07-1.69.29a3,3,0,0,0-.2.92c-.06.31-.13.61-.18.92-.11.63-.15,1.06.46,1.39a3.86,3.86,0,0,0,1.44.22c.63.06,1.29.11,1.92.12a9.62,9.62,0,0,1,1.57,0,1,1,0,0,1,.78,1.13c-.27.85-2.54.92-3.23,1a15.17,15.17,0,0,1-4,0c-1-.1-3-.29-3.11-1.68A12.11,12.11,0,0,1,108.49,17.42Z"/><path d="M36.12,24.12a9.54,9.54,0,0,1-2.94.25c-.52,0-1.63-.35-1.54-1.12s1.25-.81,1.76-1A3.31,3.31,0,0,0,35,21.08c.43-.66-.1-1.52-.53-2a14.92,14.92,0,0,0-1.78-1.43,22,22,0,0,1-1.83-1.74,3.09,3.09,0,0,1-.77-2.18,2.79,2.79,0,0,1,1.31-2.1,6.71,6.71,0,0,1,2.24-1,13.91,13.91,0,0,1,2.54-.54c.43-.06,1.89-.36,1.56.66-.11.33-.77.52-1,.67l-1.36.72c-.75.41-1.38.71-1.11,1.66a3.62,3.62,0,0,0,1.19,1.61l2.1,1.93a4.26,4.26,0,0,1,1.77,3.45A3.76,3.76,0,0,1,38,23C37.9,23.18,36.19,24.34,36.12,24.12Z"/><path d="M146.16,19.86c1.29.93-1.52,1.9-2,2.05a21.74,21.74,0,0,1-4.13.95c-1.32.11-2.92.25-3.63-1.15a10.59,10.59,0,0,1-.74-4.15c-.08-1.52-.31-3-.24-4.5.05-1.26-.19-2.68,1.48-2.88,1.48-.18,1.59,1.56,1.78,2.56.3,1.61.64,3.21.92,4.82a5.91,5.91,0,0,0,.33,1.22,4.27,4.27,0,0,0,.36,1c.4.52,1.48.08,2,0,.74-.11,1.49-.12,2.24-.16A3.69,3.69,0,0,1,146.16,19.86Z"/><path d="M83.78,22.59a4.93,4.93,0,0,1-2.81-1,4.75,4.75,0,0,1-.93-.84,6.67,6.67,0,0,1-.66-1.56c-.75-1.94.44-4.16,1.85-5.45a2,2,0,0,1,2.38-.61c.48.22.84.06,1.32.15a3.54,3.54,0,0,1,1.2.54A3,3,0,0,1,87.38,16a9.23,9.23,0,0,1,.47,3.44A3.45,3.45,0,0,1,86,22C85.83,22.12,83.82,22.79,83.78,22.59Zm-.07-7.17A4.17,4.17,0,0,0,82.56,18c0,.66.53,2.1,1.47,1.89.69-.15.84-1.35.74-1.91A5,5,0,0,0,83.71,15.41Z"/><path d="M44.22,10.53c.15.55-.89,1-1.23,1.27s-1,.61-.85,1.22a4.92,4.92,0,0,0,1.2,1.53c.48.47,1.05.84,1.56,1.28,1,.85,2,2,1.51,3.39a6.6,6.6,0,0,1-1.19,1.72,3.21,3.21,0,0,1-1.6,1.36,3.49,3.49,0,0,1-2,0c-.47-.11-1.17-.1-1-.83.12-.55.84-.91,1.15-1.35a7.12,7.12,0,0,0,.47-.64,1.93,1.93,0,0,0,.07-.91c0-.77-.31-.88-.83-1.36a19.44,19.44,0,0,0-1.6-1.37c-.79-.59-2.32-1.81-2-3a3.41,3.41,0,0,1,.86-1.32,5.56,5.56,0,0,1,1.71-.92,7.74,7.74,0,0,1,2.41-.6C43.5,10,44.14,9.77,44.22,10.53Z"/><path d="M132.41,0c.3.1.59.23.9.31s.83,0,1,.33c.21.5-.84,1.14-1.18,1.38-.95.68-2.58,2.13-3.83,1.72-.41-.13-1.18-.44-1.36-.87-.25-.6.29-.72.73-.89C130,1.47,131.11.58,132.41,0Z"/></g></svg>